<?xml version="1.0" standalone="no"?>
<!DOCTYPE svg PUBLIC "-//W3C//DTD SVG 20010904//EN"
 "http://www.w3.org/TR/2001/REC-SVG-20010904/DTD/svg10.dtd">
<svg version="1.0" xmlns="http://www.w3.org/2000/svg"
 width="185.000000pt" height="185.000000pt" viewBox="0 0 185.000000 185.000000"
 preserveAspectRatio="xMidYMid meet">

<g transform="translate(0.000000,185.000000) scale(0.100000,-0.100000)"
fill="#000000" stroke="none">
<path d="M405 1346 c-158 -39 -278 -160 -321 -321 -61 -226 97 -473 334 -524
81 -17 961 -15 1027 3 161 43 278 160 321 321 61 226 -97 473 -334 524 -77 16
-960 14 -1027 -3z m159 -147 c15 -11 36 -40 48 -62 11 -23 57 -80 100 -127 58
-62 91 -108 122 -170 22 -47 51 -98 64 -115 12 -16 21 -34 20 -40 -5 -16 -72
-5 -89 15 -15 17 -69 45 -73 38 -13 -22 -23 -57 -19 -62 4 -3 17 -6 30 -6 37
0 26 -17 -14 -23 -21 -3 -48 -8 -61 -12 -17 -6 -21 -4 -17 8 5 11 0 13 -20 9
-16 -3 -30 0 -35 8 -6 9 -13 9 -28 1 -28 -15 -51 -14 -68 3 -12 13 -11 16 7
21 11 4 31 4 44 1 28 -7 48 13 35 34 -6 8 -10 25 -10 38 0 13 -17 43 -37 66
-31 35 -43 61 -63 142 -25 98 -25 98 -60 105 -20 5 -36 4 -38 -2 -7 -18 -22 3
-22 30 0 17 14 47 35 75 33 42 39 46 79 46 29 0 52 -7 70 -21z m882 -25 c71
-34 103 -126 69 -198 -10 -20 -42 -58 -72 -84 -30 -26 -88 -82 -130 -125 -83
-84 -124 -105 -189 -93 -47 9 -98 59 -112 108 -17 62 -1 104 69 175 35 34 69
63 75 63 7 0 21 15 33 33 26 42 88 102 126 121 39 20 88 20 131 0z"/>
<path d="M656 715 c-19 -30 -19 -30 9 -39 34 -10 44 6 25 37 l-17 28 -17 -26z"/>
<path d="M1290 1065 c-45 -46 -54 -60 -54 -91 0 -28 7 -42 28 -61 22 -18 27
-29 22 -48 -4 -16 -14 -25 -25 -25 -25 0 -79 54 -87 87 l-7 25 -43 -43 c-50
-49 -62 -85 -40 -127 17 -33 34 -42 78 -42 24 0 43 12 85 53 45 46 53 60 53
91 0 27 -7 43 -26 61 -29 27 -30 68 -1 73 21 4 87 -58 87 -82 0 -24 10 -20 57
26 35 34 43 49 43 78 0 47 -33 80 -81 80 -29 0 -44 -9 -89 -55z"/>
</g>
</svg>
