<svg version="1.1" id="Layer_1" xmlns="http://www.w3.org/2000/svg" xmlns:xlink="http://www.w3.org/1999/xlink" x="0px" y="0px"
	 width="100%" viewBox="0 0 260 260" enable-background="new 0 0 260 260" xml:space="preserve">
<path fill="#EA4B71" opacity="1.000000" stroke="none" 
	d="
M150.000000,261.000000 
	C100.000000,261.000000 50.500000,261.000000 1.000000,261.000000 
	C1.000000,174.333328 1.000000,87.666664 1.000000,1.000000 
	C87.666664,1.000000 174.333328,1.000000 261.000000,1.000000 
	C261.000000,87.666664 261.000000,174.333328 261.000000,261.000000 
	C224.166672,261.000000 187.333328,261.000000 150.000000,261.000000 
M152.546982,160.127670 
	C154.782562,160.721680 157.006577,161.737137 159.256744,161.798767 
	C161.839020,161.869507 162.883652,162.912613 163.952942,165.134338 
	C167.649063,172.814041 175.889359,176.649094 183.923462,174.785995 
	C191.880234,172.940826 197.833862,165.483154 197.816071,157.383698 
	C197.798889,149.562195 191.904724,142.053818 184.301956,140.168503 
	C176.019318,138.114594 167.672256,141.847855 163.986176,149.885559 
	C162.334763,153.486557 159.719299,153.938919 157.345245,152.307922 
	C154.829880,150.579865 152.603119,147.814697 151.345444,145.011215 
	C149.227371,140.289764 147.974274,135.180267 146.497253,130.661957 
	C147.976059,126.401840 149.895844,122.032341 150.979614,117.464485 
	C152.436234,111.325294 154.912323,108.827805 161.143570,108.742241 
	C165.805862,108.678223 170.482712,108.940880 175.128708,108.658020 
	C178.697495,108.440735 180.655029,109.449982 182.368149,112.900375 
	C185.893661,120.001083 194.347183,123.298134 201.906540,121.336769 
	C209.894730,119.264130 215.049774,112.989853 215.461243,104.839172 
	C215.854843,97.042252 210.699829,89.598297 203.277359,87.245384 
	C195.586914,84.807518 186.849731,87.181007 183.279755,94.272522 
	C180.590408,99.614716 177.063400,100.291939 172.203384,99.823708 
	C171.213318,99.728325 170.206207,99.809891 169.206955,99.809891 
	C148.630508,99.809891 147.869614,100.382011 141.553436,119.788292 
	C140.308151,123.614410 137.678024,125.994469 133.522568,126.181389 
	C129.841614,126.346985 126.370880,127.089813 124.126411,122.241074 
	C121.173912,115.862770 115.281342,112.842003 108.192070,113.054672 
	C101.098808,113.267456 95.666939,116.687042 92.869072,123.218300 
	C91.409019,126.626617 89.016418,126.281967 86.406029,126.262947 
	C83.992935,126.245361 81.850922,126.605469 80.327820,123.472015 
	C76.304726,115.195374 68.221359,111.474243 60.169014,113.481163 
	C52.065258,115.500893 46.370045,122.794243 46.502766,130.982300 
	C46.630672,138.873642 52.114727,145.983704 59.582493,147.940109 
	C68.028229,150.152740 76.317093,146.521790 80.343391,138.194931 
	C81.802231,135.177872 83.765556,135.130600 86.309052,135.175919 
	C88.941406,135.222794 91.298241,134.900482 92.771690,138.249222 
	C95.713150,144.934402 101.267242,148.408920 108.585304,148.473923 
	C116.127022,148.540924 121.472458,144.794556 125.032074,138.221848 
	C125.664948,137.053268 126.760506,135.604141 127.897552,135.325439 
	C135.616547,133.433395 140.844406,137.027740 142.113968,145.000641 
	C143.140854,151.449600 145.927261,156.646423 152.546982,160.127670 
z"/>
<path fill="#FEFAFB" opacity="1.000000" stroke="none" 
	d="
M152.197144,159.982635 
	C145.927261,156.646423 143.140854,151.449600 142.113968,145.000641 
	C140.844406,137.027740 135.616547,133.433395 127.897552,135.325439 
	C126.760506,135.604141 125.664948,137.053268 125.032074,138.221848 
	C121.472458,144.794556 116.127022,148.540924 108.585304,148.473923 
	C101.267242,148.408920 95.713150,144.934402 92.771690,138.249222 
	C91.298241,134.900482 88.941406,135.222794 86.309052,135.175919 
	C83.765556,135.130600 81.802231,135.177872 80.343391,138.194931 
	C76.317093,146.521790 68.028229,150.152740 59.582493,147.940109 
	C52.114727,145.983704 46.630672,138.873642 46.502766,130.982300 
	C46.370045,122.794243 52.065258,115.500893 60.169014,113.481163 
	C68.221359,111.474243 76.304726,115.195374 80.327820,123.472015 
	C81.850922,126.605469 83.992935,126.245361 86.406029,126.262947 
	C89.016418,126.281967 91.409019,126.626617 92.869072,123.218300 
	C95.666939,116.687042 101.098808,113.267456 108.192070,113.054672 
	C115.281342,112.842003 121.173912,115.862770 124.126411,122.241074 
	C126.370880,127.089813 129.841614,126.346985 133.522568,126.181389 
	C137.678024,125.994469 140.308151,123.614410 141.553436,119.788292 
	C147.869614,100.382011 148.630508,99.809891 169.206955,99.809891 
	C170.206207,99.809891 171.213318,99.728325 172.203384,99.823708 
	C177.063400,100.291939 180.590408,99.614716 183.279755,94.272522 
	C186.849731,87.181007 195.586914,84.807518 203.277359,87.245384 
	C210.699829,89.598297 215.854843,97.042252 215.461243,104.839172 
	C215.049774,112.989853 209.894730,119.264130 201.906540,121.336769 
	C194.347183,123.298134 185.893661,120.001083 182.368149,112.900375 
	C180.655029,109.449982 178.697495,108.440735 175.128708,108.658020 
	C170.482712,108.940880 165.805862,108.678223 161.143570,108.742241 
	C154.912323,108.827805 152.436234,111.325294 150.979614,117.464485 
	C149.895844,122.032341 147.976059,126.401840 146.497253,130.661957 
	C147.974274,135.180267 149.227371,140.289764 151.345444,145.011215 
	C152.603119,147.814697 154.829880,150.579865 157.345245,152.307922 
	C159.719299,153.938919 162.334763,153.486557 163.986176,149.885559 
	C167.672256,141.847855 176.019318,138.114594 184.301956,140.168503 
	C191.904724,142.053818 197.798889,149.562195 197.816071,157.383698 
	C197.833862,165.483154 191.880234,172.940826 183.923462,174.785995 
	C175.889359,176.649094 167.649063,172.814041 163.952942,165.134338 
	C162.883652,162.912613 161.839020,161.869507 159.256744,161.798767 
	C157.006577,161.737137 154.782562,160.721680 152.197144,159.982635 
M59.242661,123.453423 
	C55.419250,126.605499 54.232227,130.511078 56.557423,134.955673 
	C58.422050,138.519897 61.619915,140.164673 65.708054,139.473618 
	C71.031235,138.573837 74.272003,133.396255 72.799835,128.304840 
	C71.245201,122.928207 66.204926,120.878204 59.242661,123.453423 
M110.025467,139.519379 
	C113.959534,138.674072 117.188583,136.465805 117.260292,132.412277 
	C117.309906,129.608154 116.056183,126.193932 114.207664,124.083344 
	C111.557060,121.056953 107.580048,121.161705 104.122498,123.271461 
	C100.640350,125.396225 99.191414,128.792313 100.160423,132.720566 
	C101.287323,137.288879 104.488251,139.637131 110.025467,139.519379 
M193.857712,96.130829 
	C187.822388,98.967484 187.386642,107.143692 191.900589,110.778587 
	C195.390976,113.589256 199.155930,113.899483 202.930725,111.258293 
	C206.270676,108.921356 207.473358,104.330551 205.802185,100.609200 
	C203.853775,96.270569 200.083389,94.688164 193.857712,96.130829 
M173.193207,151.711105 
	C168.325119,157.146255 172.158417,165.120865 178.196533,166.038422 
	C182.622650,166.711014 186.082977,165.147858 187.986954,160.983505 
	C189.811630,156.992661 188.799759,153.319122 185.517899,150.694458 
	C181.661957,147.610672 177.550430,147.876801 173.193207,151.711105 
z"/>
<path fill="#EB5176" opacity="1.000000" stroke="none" 
	d="
M59.579727,123.259201 
	C66.204926,120.878204 71.245201,122.928207 72.799835,128.304840 
	C74.272003,133.396255 71.031235,138.573837 65.708054,139.473618 
	C61.619915,140.164673 58.422050,138.519897 56.557423,134.955673 
	C54.232227,130.511078 55.419250,126.605499 59.579727,123.259201 
z"/>
<path fill="#EB5176" opacity="1.000000" stroke="none" 
	d="
M109.649963,139.583588 
	C104.488251,139.637131 101.287323,137.288879 100.160423,132.720566 
	C99.191414,128.792313 100.640350,125.396225 104.122498,123.271461 
	C107.580048,121.161705 111.557060,121.056953 114.207664,124.083344 
	C116.056183,126.193932 117.309906,129.608154 117.260292,132.412277 
	C117.188583,136.465805 113.959534,138.674072 109.649963,139.583588 
z"/>
<path fill="#EB5075" opacity="1.000000" stroke="none" 
	d="
M194.227142,96.018578 
	C200.083389,94.688164 203.853775,96.270569 205.802185,100.609200 
	C207.473358,104.330551 206.270676,108.921356 202.930725,111.258293 
	C199.155930,113.899483 195.390976,113.589256 191.900589,110.778587 
	C187.386642,107.143692 187.822388,98.967484 194.227142,96.018578 
z"/>
<path fill="#EB5176" opacity="1.000000" stroke="none" 
	d="
M173.468735,151.429199 
	C177.550430,147.876801 181.661957,147.610672 185.517899,150.694458 
	C188.799759,153.319122 189.811630,156.992661 187.986954,160.983505 
	C186.082977,165.147858 182.622650,166.711014 178.196533,166.038422 
	C172.158417,165.120865 168.325119,157.146255 173.468735,151.429199 
z"/>
</svg>