<?xml version="1.0" standalone="no"?>
<!DOCTYPE svg PUBLIC "-//W3C//DTD SVG 20010904//EN"
 "http://www.w3.org/TR/2001/REC-SVG-20010904/DTD/svg10.dtd">
<svg version="1.0" xmlns="http://www.w3.org/2000/svg"
 width="1024.000000pt" height="1024.000000pt" viewBox="0 0 1024.000000 1024.000000"
 preserveAspectRatio="xMidYMid meet">

<g transform="translate(0.000000,1024.000000) scale(0.100000,-0.100000)"
fill="#000000" stroke="none">
<path d="M3015 9787 c-322 -108 -539 -393 -654 -858 -95 -383 -114 -924 -55
-1504 l6 -60 -89 -67 c-92 -68 -240 -213 -316 -308 -337 -424 -482 -1047 -381
-1645 43 -258 142 -525 263 -710 l20 -30 -33 -75 c-84 -189 -169 -496 -207
-740 -30 -192 -37 -568 -15 -740 42 -317 127 -575 267 -807 l52 -86 -17 -46
c-123 -319 -181 -526 -217 -776 -30 -205 -12 -558 37 -707 21 -64 82 -130 146
-159 63 -28 163 -31 220 -6 56 24 123 91 148 149 19 45 21 63 16 133 -3 44
-10 105 -15 135 -15 86 -13 292 5 409 32 215 100 438 211 696 90 206 86 276
-25 422 -78 103 -133 199 -175 303 -141 355 -152 792 -32 1266 44 171 91 297
173 464 64 128 67 139 67 205 -1 84 -23 132 -96 213 -200 219 -308 680 -254
1083 93 700 538 1122 1275 1208 47 5 146 13 220 16 215 11 264 42 354 229 135
277 391 482 752 600 211 69 500 94 709 61 435 -68 749 -297 970 -707 53 -99
111 -157 177 -178 30 -10 85 -13 178 -11 635 12 1075 -233 1320 -734 187 -382
222 -877 89 -1266 -47 -138 -108 -232 -200 -304 -94 -76 -123 -134 -118 -243
4 -76 5 -80 71 -188 135 -220 230 -454 280 -684 19 -91 22 -135 23 -330 0
-199 -3 -238 -23 -334 -49 -227 -143 -455 -278 -677 -63 -104 -67 -114 -72
-183 -4 -67 -1 -80 33 -162 106 -253 172 -485 200 -697 19 -151 19 -393 0
-542 -21 -158 -8 -218 63 -297 106 -117 292 -118 404 -2 20 22 44 56 53 77 41
100 66 478 46 706 -26 289 -85 537 -201 846 -11 27 -7 38 35 115 213 390 317
810 302 1225 -12 339 -85 625 -244 956 l-65 136 44 61 c129 174 225 444 269
752 18 126 15 441 -5 585 -55 393 -191 735 -406 1020 -64 85 -218 242 -323
330 l-47 40 10 90 c18 162 30 406 30 600 0 820 -186 1372 -544 1617 -427 293
-866 50 -1114 -617 -73 -194 -132 -441 -148 -614 -4 -38 -10 -74 -14 -80 -4
-8 -27 0 -71 25 -156 88 -380 169 -574 205 -138 26 -457 37 -601 20 -244 -28
-490 -98 -703 -201 -68 -33 -125 -60 -126 -60 -1 0 -8 44 -14 98 -61 494 -240
934 -476 1167 -140 137 -246 186 -415 192 -89 3 -115 0 -175 -20z m248 -620
c56 -75 123 -212 167 -346 77 -229 110 -442 110 -699 0 -219 -9 -277 -54 -350
l-36 -59 -89 -7 c-119 -9 -304 -40 -418 -69 l-92 -24 -8 56 c-4 31 -8 211 -8
401 1 277 4 371 19 475 48 346 158 617 279 689 l41 25 25 -20 c14 -11 43 -44
64 -72z m3856 58 c78 -40 174 -202 226 -380 67 -231 89 -471 83 -897 -2 -175
-6 -320 -9 -322 -2 -3 -45 6 -96 19 -120 31 -281 55 -426 62 -108 6 -120 8
-133 28 -47 72 -56 491 -15 730 54 318 169 608 289 729 25 25 47 46 49 46 2 0
17 -7 32 -15z"/>
<path d="M4965 5889 c-406 -41 -773 -212 -1031 -480 -135 -141 -229 -296 -280
-465 -25 -79 -28 -105 -28 -239 -1 -127 3 -163 22 -233 97 -355 388 -635 802
-771 209 -68 394 -95 660 -94 284 1 496 31 711 103 506 168 779 516 779 995 0
541 -515 1053 -1173 1165 -137 23 -342 32 -462 19z m485 -414 c207 -54 379
-146 514 -275 120 -115 195 -229 231 -355 22 -74 22 -216 1 -308 -69 -295
-363 -482 -845 -538 -155 -17 -489 -7 -612 20 -251 54 -438 148 -566 284 -241
255 -223 573 47 847 133 134 290 231 484 295 164 55 235 65 451 61 168 -3 202
-7 295 -31z"/>
<path d="M4851 5033 c-18 -9 -42 -31 -52 -47 -50 -82 -27 -154 74 -234 l65
-52 3 -123 c4 -107 7 -127 28 -160 26 -43 85 -77 132 -77 43 0 109 33 134 68
17 23 20 46 23 154 l4 126 74 58 c86 66 104 93 104 164 0 45 -4 55 -38 91 -28
31 -47 42 -79 46 -59 8 -82 0 -152 -53 -59 -44 -62 -45 -84 -30 -12 9 -44 32
-71 51 -55 40 -108 46 -165 18z"/>
<path d="M3190 5809 c-112 -22 -217 -107 -268 -217 -23 -48 -27 -71 -27 -147
0 -82 3 -97 33 -157 66 -134 187 -211 332 -211 102 0 173 28 249 99 85 78 116
151 116 269 0 80 -3 97 -31 155 -51 107 -141 180 -253 206 -63 15 -86 16 -151
3z"/>
<path d="M6894 5806 c-120 -29 -221 -118 -264 -233 -31 -82 -26 -204 12 -285
68 -147 237 -236 393 -207 117 22 210 88 263 187 119 223 -10 495 -257 542
-65 12 -82 12 -147 -4z"/>
</g>
</svg>
