<?xml version="1.0" encoding="UTF-8"?>
<!DOCTYPE svg PUBLIC "-//W3C//DTD SVG 1.1//EN" "http://www.w3.org/Graphics/SVG/1.1/DTD/svg11.dtd">
<svg xmlns="http://www.w3.org/2000/svg" version="1.1" width="1200px" height="1200px" style="shape-rendering:geometricPrecision; text-rendering:geometricPrecision; image-rendering:optimizeQuality; fill-rule:evenodd; clip-rule:evenodd" xmlns:xlink="http://www.w3.org/1999/xlink">
<g><path style="opacity:0.999" fill="#e9b813" d="M 674.5,-0.5 C 787.167,-0.5 899.833,-0.5 1012.5,-0.5C 1029.65,3.84444 1041.82,14.1778 1049,30.5C 1051.13,36.6629 1052.3,42.9962 1052.5,49.5C 1051.51,55.31 1051.18,61.31 1051.5,67.5C 912.833,67.5 774.167,67.5 635.5,67.5C 635.817,63.2984 635.483,59.2984 634.5,55.5C 633.57,26.4575 646.903,7.79085 674.5,-0.5 Z"/></g>
<g><path style="opacity:0.998" fill="#e5b012" d="M 634.5,76.5 C 635.489,81.9753 635.822,87.642 635.5,93.5C 774.167,93.5 912.833,93.5 1051.5,93.5C 1051.23,95.099 1051.57,96.4324 1052.5,97.5C 1052.5,110.5 1052.5,123.5 1052.5,136.5C 1051.52,140.298 1051.18,144.298 1051.5,148.5C 912.5,148.5 773.5,148.5 634.5,148.5C 634.5,124.5 634.5,100.5 634.5,76.5 Z"/></g>
<g><path style="opacity:1" fill="#e7b412" d="M 1052.5,49.5 C 1052.5,65.5 1052.5,81.5 1052.5,97.5C 1051.57,96.4324 1051.23,95.099 1051.5,93.5C 912.833,93.5 774.167,93.5 635.5,93.5C 635.822,87.642 635.489,81.9753 634.5,76.5C 634.5,69.5 634.5,62.5 634.5,55.5C 635.483,59.2984 635.817,63.2984 635.5,67.5C 774.167,67.5 912.833,67.5 1051.5,67.5C 1051.18,61.31 1051.51,55.31 1052.5,49.5 Z"/></g>
<g><path style="opacity:0.998" fill="#e2ab10" d="M 1052.5,136.5 C 1052.5,158.5 1052.5,180.5 1052.5,202.5C 1051.51,207.305 1051.18,212.305 1051.5,217.5C 912.5,217.5 773.5,217.5 634.5,217.5C 634.5,194.5 634.5,171.5 634.5,148.5C 773.5,148.5 912.5,148.5 1051.5,148.5C 1051.18,144.298 1051.52,140.298 1052.5,136.5 Z"/></g>
<g><path style="opacity:0.998" fill="#dfa50f" d="M 1052.5,202.5 C 1052.5,230.833 1052.5,259.167 1052.5,287.5C 939.146,287.937 825.813,287.271 712.5,285.5C 686.286,285.509 660.286,286.176 634.5,287.5C 634.5,286.833 634.5,286.167 634.5,285.5C 634.5,262.833 634.5,240.167 634.5,217.5C 773.5,217.5 912.5,217.5 1051.5,217.5C 1051.18,212.305 1051.51,207.305 1052.5,202.5 Z"/></g>
<g><path style="opacity:0.005" fill="#000000" d="M 634.5,285.5 C 634.5,286.167 634.5,286.833 634.5,287.5C 634.5,291.167 634.5,294.833 634.5,298.5C 568.5,298.5 502.5,298.5 436.5,298.5C 450.386,290.775 465.386,286.609 481.5,286C 532.499,285.5 583.499,285.333 634.5,285.5 Z"/></g>
<g><path style="opacity:0.998" fill="#db9f0e" d="M 1052.5,287.5 C 1052.5,314.833 1052.5,342.167 1052.5,369.5C 1051.52,365.366 1051.18,361.032 1051.5,356.5C 992.167,356.5 932.833,356.5 873.5,356.5C 873.152,352.443 872.486,348.443 871.5,344.5C 865.463,344.829 859.463,344.496 853.5,343.5C 851.961,340.254 850.294,337.088 848.5,334C 844.459,333.827 840.459,333.327 836.5,332.5C 831.47,324.949 824.47,321.116 815.5,321C 808.678,317.38 801.678,315.547 794.5,315.5C 785.959,306.062 775.292,300.562 762.5,299C 719.835,298.5 677.168,298.333 634.5,298.5C 634.5,294.833 634.5,291.167 634.5,287.5C 660.286,286.176 686.286,285.509 712.5,285.5C 825.813,287.271 939.146,287.937 1052.5,287.5 Z"/></g>
<g><path style="opacity:0.998" fill="#f8e37f" d="M 436.5,298.5 C 502.5,298.5 568.5,298.5 634.5,298.5C 677.168,298.333 719.835,298.5 762.5,299C 775.292,300.562 785.959,306.062 794.5,315.5C 797.338,319.172 799.671,323.172 801.5,327.5C 803.455,331.987 804.788,336.654 805.5,341.5C 805.5,342.5 805.5,343.5 805.5,344.5C 666.29,345.162 527.29,344.496 388.5,342.5C 393.376,315.621 409.376,300.955 436.5,298.5 Z"/></g>
<g><path style="opacity:0.998" fill="#d7990d" d="M 1052.5,369.5 C 1052.5,392.167 1052.5,414.833 1052.5,437.5C 993.833,437.5 935.167,437.5 876.5,437.5C 876.5,433.5 876.5,429.5 876.5,425.5C 871.5,425.5 866.5,425.5 861.5,425.5C 861.5,420.833 861.5,416.167 861.5,411.5C 858.5,411.5 855.5,411.5 852.5,411.5C 852.5,404.5 852.5,397.5 852.5,390.5C 851.167,390.5 849.833,390.5 848.5,390.5C 848.623,383.471 848.29,376.471 847.5,369.5C 846.167,369.5 844.833,369.5 843.5,369.5C 842.616,362.297 840.949,355.297 838.5,348.5C 836.801,348.66 835.134,348.494 833.5,348C 828.833,339.333 822.167,332.667 813.5,328C 809.514,327.501 805.514,327.334 801.5,327.5C 799.671,323.172 797.338,319.172 794.5,315.5C 801.678,315.547 808.678,317.38 815.5,321C 824.47,321.116 831.47,324.949 836.5,332.5C 840.459,333.327 844.459,333.827 848.5,334C 850.294,337.088 851.961,340.254 853.5,343.5C 859.463,344.496 865.463,344.829 871.5,344.5C 872.486,348.443 873.152,352.443 873.5,356.5C 932.833,356.5 992.167,356.5 1051.5,356.5C 1051.18,361.032 1051.52,365.366 1052.5,369.5 Z"/></g>
<g><path style="opacity:0.999" fill="#f7df79" d="M 388.5,342.5 C 527.29,344.496 666.29,345.162 805.5,344.5C 805.5,358.167 805.5,371.833 805.5,385.5C 666.5,385.5 527.5,385.5 388.5,385.5C 388.5,371.167 388.5,356.833 388.5,342.5 Z"/></g>
<g><path style="opacity:1" fill="#d0930d" d="M 801.5,327.5 C 805.514,327.334 809.514,327.501 813.5,328C 822.167,332.667 828.833,339.333 833.5,348C 835.134,348.494 836.801,348.66 838.5,348.5C 840.949,355.297 842.616,362.297 843.5,369.5C 844.833,369.5 846.167,369.5 847.5,369.5C 848.29,376.471 848.623,383.471 848.5,390.5C 849.833,390.5 851.167,390.5 852.5,390.5C 852.5,397.5 852.5,404.5 852.5,411.5C 855.5,411.5 858.5,411.5 861.5,411.5C 861.5,416.167 861.5,420.833 861.5,425.5C 861.5,427.833 861.5,430.167 861.5,432.5C 863.167,432.5 864.833,432.5 866.5,432.5C 866.5,438.5 866.5,444.5 866.5,450.5C 858.167,450.5 849.833,450.5 841.5,450.5C 841.5,451.5 841.5,452.5 841.5,453.5C 840.167,453.5 838.833,453.5 837.5,453.5C 837.5,452.5 837.5,451.5 837.5,450.5C 836.5,450.5 835.5,450.5 834.5,450.5C 834.5,446.167 834.5,441.833 834.5,437.5C 831.167,437.5 827.833,437.5 824.5,437.5C 824.5,433.5 824.5,429.5 824.5,425.5C 822.167,425.5 819.833,425.5 817.5,425.5C 817.5,421.833 817.5,418.167 817.5,414.5C 813.833,414.5 810.167,414.5 806.5,414.5C 806.831,389.994 806.498,365.661 805.5,341.5C 804.788,336.654 803.455,331.987 801.5,327.5 Z"/></g>
<g><path style="opacity:0.999" fill="#f5db73" d="M 388.5,385.5 C 527.5,385.5 666.5,385.5 805.5,385.5C 805.5,399.167 805.5,412.833 805.5,426.5C 666.833,426.5 528.167,426.5 389.5,426.5C 389.802,429.059 389.468,431.393 388.5,433.5C 388.5,417.5 388.5,401.5 388.5,385.5 Z"/></g>
<g><path style="opacity:1" fill="#cb8c0b" d="M 806.5,414.5 C 810.167,414.5 813.833,414.5 817.5,414.5C 817.5,418.167 817.5,421.833 817.5,425.5C 819.833,425.5 822.167,425.5 824.5,425.5C 824.5,429.5 824.5,433.5 824.5,437.5C 827.833,437.5 831.167,437.5 834.5,437.5C 834.5,441.833 834.5,446.167 834.5,450.5C 835.5,450.5 836.5,450.5 837.5,450.5C 837.5,451.5 837.5,452.5 837.5,453.5C 838.833,453.5 840.167,453.5 841.5,453.5C 841.5,455.833 841.5,458.167 841.5,460.5C 841.5,465.167 841.5,469.833 841.5,474.5C 842.833,474.5 844.167,474.5 845.5,474.5C 845.5,481.167 845.5,487.833 845.5,494.5C 846.5,494.5 847.5,494.5 848.5,494.5C 848.5,501.5 848.5,508.5 848.5,515.5C 849.833,515.5 851.167,515.5 852.5,515.5C 852.5,522.5 852.5,529.5 852.5,536.5C 853.833,536.5 855.167,536.5 856.5,536.5C 856.5,542.167 856.5,547.833 856.5,553.5C 855.167,553.5 853.833,553.5 852.5,553.5C 852.5,549.5 852.5,545.5 852.5,541.5C 850.167,541.5 847.833,541.5 845.5,541.5C 845.5,537.833 845.5,534.167 845.5,530.5C 842.833,530.5 840.167,530.5 837.5,530.5C 837.5,526.5 837.5,522.5 837.5,518.5C 836.5,518.5 835.5,518.5 834.5,518.5C 834.5,514.5 834.5,510.5 834.5,506.5C 831.167,506.5 827.833,506.5 824.5,506.5C 824.5,502.833 824.5,499.167 824.5,495.5C 818.5,495.5 812.5,495.5 806.5,495.5C 806.5,468.5 806.5,441.5 806.5,414.5 Z"/></g>
<g><path style="opacity:0.999" fill="#f4d86d" d="M 805.5,426.5 C 805.5,440.5 805.5,454.5 805.5,468.5C 666.833,468.5 528.167,468.5 389.5,468.5C 389.795,470.735 389.461,472.735 388.5,474.5C 388.5,460.833 388.5,447.167 388.5,433.5C 389.468,431.393 389.802,429.059 389.5,426.5C 528.167,426.5 666.833,426.5 805.5,426.5 Z"/></g>
<g><path style="opacity:1" fill="#d4920c" d="M 861.5,425.5 C 866.5,425.5 871.5,425.5 876.5,425.5C 876.5,429.5 876.5,433.5 876.5,437.5C 935.167,437.5 993.833,437.5 1052.5,437.5C 1052.5,456.833 1052.5,476.167 1052.5,495.5C 1051.52,498.962 1051.19,502.629 1051.5,506.5C 993.167,506.5 934.833,506.5 876.5,506.5C 876.5,502.833 876.5,499.167 876.5,495.5C 871.5,495.5 866.5,495.5 861.5,495.5C 861.5,491.5 861.5,487.5 861.5,483.5C 858.5,483.5 855.5,483.5 852.5,483.5C 852.5,479.833 852.5,476.167 852.5,472.5C 850.167,472.5 847.833,472.5 845.5,472.5C 845.5,468.5 845.5,464.5 845.5,460.5C 844.167,460.5 842.833,460.5 841.5,460.5C 841.5,458.167 841.5,455.833 841.5,453.5C 841.5,452.5 841.5,451.5 841.5,450.5C 849.833,450.5 858.167,450.5 866.5,450.5C 866.5,444.5 866.5,438.5 866.5,432.5C 864.833,432.5 863.167,432.5 861.5,432.5C 861.5,430.167 861.5,427.833 861.5,425.5 Z"/></g>
<g><path style="opacity:0.997" fill="#d18c0b" d="M 841.5,460.5 C 842.833,460.5 844.167,460.5 845.5,460.5C 845.5,464.5 845.5,468.5 845.5,472.5C 847.833,472.5 850.167,472.5 852.5,472.5C 852.5,476.167 852.5,479.833 852.5,483.5C 855.5,483.5 858.5,483.5 861.5,483.5C 861.5,487.5 861.5,491.5 861.5,495.5C 866.5,495.5 871.5,495.5 876.5,495.5C 876.5,499.167 876.5,502.833 876.5,506.5C 934.833,506.5 993.167,506.5 1051.5,506.5C 1051.19,502.629 1051.52,498.962 1052.5,495.5C 1052.5,526.167 1052.5,556.833 1052.5,587.5C 1051.52,584.038 1051.19,580.371 1051.5,576.5C 993.167,576.5 934.833,576.5 876.5,576.5C 876.5,572.5 876.5,568.5 876.5,564.5C 871.5,564.5 866.5,564.5 861.5,564.5C 861.5,560.833 861.5,557.167 861.5,553.5C 859.833,553.5 858.167,553.5 856.5,553.5C 856.5,547.833 856.5,542.167 856.5,536.5C 855.167,536.5 853.833,536.5 852.5,536.5C 852.5,529.5 852.5,522.5 852.5,515.5C 851.167,515.5 849.833,515.5 848.5,515.5C 848.5,508.5 848.5,501.5 848.5,494.5C 847.5,494.5 846.5,494.5 845.5,494.5C 845.5,487.833 845.5,481.167 845.5,474.5C 844.167,474.5 842.833,474.5 841.5,474.5C 841.5,469.833 841.5,465.167 841.5,460.5 Z"/></g>
<g><path style="opacity:0.999" fill="#f3d568" d="M 805.5,468.5 C 805.5,476.5 805.5,484.5 805.5,492.5C 666.5,492.5 527.5,492.5 388.5,492.5C 388.5,486.5 388.5,480.5 388.5,474.5C 389.461,472.735 389.795,470.735 389.5,468.5C 528.167,468.5 666.833,468.5 805.5,468.5 Z"/></g>
<g><path style="opacity:0.999" fill="#f2d365" d="M 388.5,492.5 C 527.5,492.5 666.5,492.5 805.5,492.5C 805.5,500.5 805.5,508.5 805.5,516.5C 666.5,516.5 527.5,516.5 388.5,516.5C 388.5,508.5 388.5,500.5 388.5,492.5 Z"/></g>
<g><path style="opacity:0.998" fill="#cc8609" d="M 806.5,495.5 C 812.5,495.5 818.5,495.5 824.5,495.5C 824.5,499.167 824.5,502.833 824.5,506.5C 827.833,506.5 831.167,506.5 834.5,506.5C 834.5,510.5 834.5,514.5 834.5,518.5C 835.5,518.5 836.5,518.5 837.5,518.5C 837.5,522.5 837.5,526.5 837.5,530.5C 840.167,530.5 842.833,530.5 845.5,530.5C 845.5,534.167 845.5,537.833 845.5,541.5C 847.833,541.5 850.167,541.5 852.5,541.5C 852.5,545.5 852.5,549.5 852.5,553.5C 853.833,553.5 855.167,553.5 856.5,553.5C 858.167,553.5 859.833,553.5 861.5,553.5C 861.5,557.167 861.5,560.833 861.5,564.5C 866.5,564.5 871.5,564.5 876.5,564.5C 876.5,568.5 876.5,572.5 876.5,576.5C 934.833,576.5 993.167,576.5 1051.5,576.5C 1051.19,580.371 1051.52,584.038 1052.5,587.5C 1052.5,606.833 1052.5,626.167 1052.5,645.5C 993.833,645.5 935.167,645.5 876.5,645.5C 876.5,641.833 876.5,638.167 876.5,634.5C 871.5,634.5 866.5,634.5 861.5,634.5C 861.5,630.5 861.5,626.5 861.5,622.5C 858.5,622.5 855.5,622.5 852.5,622.5C 852.5,618.833 852.5,615.167 852.5,611.5C 850.167,611.5 847.833,611.5 845.5,611.5C 845.5,607.5 845.5,603.5 845.5,599.5C 842.833,599.5 840.167,599.5 837.5,599.5C 837.5,595.5 837.5,591.5 837.5,587.5C 834.833,587.5 832.167,587.5 829.5,587.5C 829.5,583.833 829.5,580.167 829.5,576.5C 825.5,576.5 821.5,576.5 817.5,576.5C 817.5,572.5 817.5,568.5 817.5,564.5C 813.833,564.5 810.167,564.5 806.5,564.5C 806.5,563.833 806.5,563.167 806.5,562.5C 806.5,540.167 806.5,517.833 806.5,495.5 Z"/></g>
<g><path style="opacity:0.999" fill="#f1d060" d="M 388.5,516.5 C 527.5,516.5 666.5,516.5 805.5,516.5C 805.5,530.167 805.5,543.833 805.5,557.5C 666.5,557.5 527.5,557.5 388.5,557.5C 388.5,543.833 388.5,530.167 388.5,516.5 Z"/></g>
<g><path style="opacity:0.999" fill="#f0cd5a" d="M 805.5,341.5 C 806.498,365.661 806.831,389.994 806.5,414.5C 806.5,441.5 806.5,468.5 806.5,495.5C 806.5,517.833 806.5,540.167 806.5,562.5C 805.505,574.322 805.172,586.322 805.5,598.5C 666.666,598.167 527.999,598.5 389.5,599.5C 389.167,599.5 388.833,599.5 388.5,599.5C 388.5,585.5 388.5,571.5 388.5,557.5C 527.5,557.5 666.5,557.5 805.5,557.5C 805.5,543.833 805.5,530.167 805.5,516.5C 805.5,508.5 805.5,500.5 805.5,492.5C 805.5,484.5 805.5,476.5 805.5,468.5C 805.5,454.5 805.5,440.5 805.5,426.5C 805.5,412.833 805.5,399.167 805.5,385.5C 805.5,371.833 805.5,358.167 805.5,344.5C 805.5,343.5 805.5,342.5 805.5,341.5 Z"/></g>
<g><path style="opacity:1" fill="#c47f09" d="M 806.5,564.5 C 810.167,564.5 813.833,564.5 817.5,564.5C 817.5,568.5 817.5,572.5 817.5,576.5C 821.5,576.5 825.5,576.5 829.5,576.5C 829.5,580.167 829.5,583.833 829.5,587.5C 832.167,587.5 834.833,587.5 837.5,587.5C 837.5,591.5 837.5,595.5 837.5,599.5C 837.5,606.5 837.5,613.5 837.5,620.5C 840.167,620.5 842.833,620.5 845.5,620.5C 845.5,627.5 845.5,634.5 845.5,641.5C 846.5,641.5 847.5,641.5 848.5,641.5C 848.5,648.5 848.5,655.5 848.5,662.5C 849.833,662.5 851.167,662.5 852.5,662.5C 852.5,669.5 852.5,676.5 852.5,683.5C 853.833,683.5 855.167,683.5 856.5,683.5C 856.5,690.167 856.5,696.833 856.5,703.5C 853.833,703.5 851.167,703.5 848.5,703.5C 848.5,699.833 848.5,696.167 848.5,692.5C 847.5,692.5 846.5,692.5 845.5,692.5C 845.5,688.5 845.5,684.5 845.5,680.5C 842.833,680.5 840.167,680.5 837.5,680.5C 837.5,676.5 837.5,672.5 837.5,668.5C 834.833,668.5 832.167,668.5 829.5,668.5C 829.5,664.833 829.5,661.167 829.5,657.5C 825.5,657.5 821.5,657.5 817.5,657.5C 817.5,653.5 817.5,649.5 817.5,645.5C 813.833,645.5 810.167,645.5 806.5,645.5C 806.5,618.5 806.5,591.5 806.5,564.5 Z"/></g>
<g><path style="opacity:1" fill="#efc954" d="M 389.5,599.5 C 527.999,598.5 666.666,598.167 805.5,598.5C 805.5,612.167 805.5,625.833 805.5,639.5C 724.833,639.5 644.167,639.5 563.5,639.5C 558.593,620.091 546.593,607.258 527.5,601C 481.53,599.536 435.53,599.036 389.5,599.5 Z"/></g>
<g><path style="opacity:0.997" fill="#ca8008" d="M 837.5,599.5 C 840.167,599.5 842.833,599.5 845.5,599.5C 845.5,603.5 845.5,607.5 845.5,611.5C 847.833,611.5 850.167,611.5 852.5,611.5C 852.5,615.167 852.5,618.833 852.5,622.5C 855.5,622.5 858.5,622.5 861.5,622.5C 861.5,626.5 861.5,630.5 861.5,634.5C 866.5,634.5 871.5,634.5 876.5,634.5C 876.5,638.167 876.5,641.833 876.5,645.5C 935.167,645.5 993.833,645.5 1052.5,645.5C 1052.5,676.5 1052.5,707.5 1052.5,738.5C 1051.52,734.702 1051.18,730.702 1051.5,726.5C 989.833,726.5 928.167,726.5 866.5,726.5C 866.5,722.833 866.5,719.167 866.5,715.5C 863.167,715.5 859.833,715.5 856.5,715.5C 856.5,711.5 856.5,707.5 856.5,703.5C 856.5,696.833 856.5,690.167 856.5,683.5C 855.167,683.5 853.833,683.5 852.5,683.5C 852.5,676.5 852.5,669.5 852.5,662.5C 851.167,662.5 849.833,662.5 848.5,662.5C 848.5,655.5 848.5,648.5 848.5,641.5C 847.5,641.5 846.5,641.5 845.5,641.5C 845.5,634.5 845.5,627.5 845.5,620.5C 842.833,620.5 840.167,620.5 837.5,620.5C 837.5,613.5 837.5,606.5 837.5,599.5 Z"/></g>
<g><path style="opacity:0.999" fill="#f8e487" d="M 388.5,599.5 C 388.833,599.5 389.167,599.5 389.5,599.5C 435.53,599.036 481.53,599.536 527.5,601C 546.593,607.258 558.593,620.091 563.5,639.5C 563.5,640.167 563.5,640.833 563.5,641.5C 563.5,644.167 563.5,646.833 563.5,649.5C 424.5,649.5 285.5,649.5 146.5,649.5C 147.866,623.243 161.199,606.743 186.5,600C 253.833,599.5 321.166,599.333 388.5,599.5 Z"/></g>
<g><path style="opacity:1" fill="#eec64e" d="M 563.5,639.5 C 644.167,639.5 724.833,639.5 805.5,639.5C 805.5,653.833 805.5,668.167 805.5,682.5C 725.167,682.5 644.833,682.5 564.5,682.5C 564.829,668.656 564.496,654.99 563.5,641.5C 563.5,640.833 563.5,640.167 563.5,639.5 Z"/></g>
<g><path style="opacity:0.997" fill="#c67907" d="M 806.5,645.5 C 810.167,645.5 813.833,645.5 817.5,645.5C 817.5,649.5 817.5,653.5 817.5,657.5C 821.5,657.5 825.5,657.5 829.5,657.5C 829.5,661.167 829.5,664.833 829.5,668.5C 832.167,668.5 834.833,668.5 837.5,668.5C 837.5,672.5 837.5,676.5 837.5,680.5C 840.167,680.5 842.833,680.5 845.5,680.5C 845.5,684.5 845.5,688.5 845.5,692.5C 846.5,692.5 847.5,692.5 848.5,692.5C 848.5,696.167 848.5,699.833 848.5,703.5C 851.167,703.5 853.833,703.5 856.5,703.5C 856.5,707.5 856.5,711.5 856.5,715.5C 859.833,715.5 863.167,715.5 866.5,715.5C 866.5,719.167 866.5,722.833 866.5,726.5C 928.167,726.5 989.833,726.5 1051.5,726.5C 1051.18,730.702 1051.52,734.702 1052.5,738.5C 1052.5,757.833 1052.5,777.167 1052.5,796.5C 990.5,796.5 928.5,796.5 866.5,796.5C 866.5,792.5 866.5,788.5 866.5,784.5C 863.167,784.5 859.833,784.5 856.5,784.5C 856.5,780.833 856.5,777.167 856.5,773.5C 853.833,773.5 851.167,773.5 848.5,773.5C 848.5,769.5 848.5,765.5 848.5,761.5C 846.167,761.5 843.833,761.5 841.5,761.5C 841.5,756.167 841.5,750.833 841.5,745.5C 840.167,745.5 838.833,745.5 837.5,745.5C 837.5,738.5 837.5,731.5 837.5,724.5C 836.5,724.5 835.5,724.5 834.5,724.5C 834.5,717.833 834.5,711.167 834.5,704.5C 832.833,704.5 831.167,704.5 829.5,704.5C 829.5,697.5 829.5,690.5 829.5,683.5C 827.833,683.5 826.167,683.5 824.5,683.5C 824.5,676.5 824.5,669.5 824.5,662.5C 818.5,662.5 812.5,662.5 806.5,662.5C 806.5,656.833 806.5,651.167 806.5,645.5 Z"/></g>
<g><path style="opacity:0.998" fill="#f8e280" d="M 146.5,649.5 C 285.5,649.5 424.5,649.5 563.5,649.5C 563.5,665.167 563.5,680.833 563.5,696.5C 424.833,696.5 286.167,696.5 147.5,696.5C 147.802,699.059 147.468,701.393 146.5,703.5C 146.5,685.5 146.5,667.5 146.5,649.5 Z"/></g>
<g><path style="opacity:1" fill="#edc248" d="M 564.5,682.5 C 644.833,682.5 725.167,682.5 805.5,682.5C 805.5,693.167 805.5,703.833 805.5,714.5C 725.167,714.5 644.833,714.5 564.5,714.5C 564.5,703.833 564.5,693.167 564.5,682.5 Z"/></g>
<g><path style="opacity:1" fill="#f7e179" d="M 563.5,641.5 C 564.496,654.99 564.829,668.656 564.5,682.5C 564.5,693.167 564.5,703.833 564.5,714.5C 564.5,722.167 564.5,729.833 564.5,737.5C 564.167,737.5 563.833,737.5 563.5,737.5C 424.5,737.5 285.5,737.5 146.5,737.5C 146.5,726.167 146.5,714.833 146.5,703.5C 147.468,701.393 147.802,699.059 147.5,696.5C 286.167,696.5 424.833,696.5 563.5,696.5C 563.5,680.833 563.5,665.167 563.5,649.5C 563.5,646.833 563.5,644.167 563.5,641.5 Z"/></g>
<g><path style="opacity:1" fill="#be7507" d="M 806.5,662.5 C 812.5,662.5 818.5,662.5 824.5,662.5C 824.5,669.5 824.5,676.5 824.5,683.5C 826.167,683.5 827.833,683.5 829.5,683.5C 829.5,690.5 829.5,697.5 829.5,704.5C 831.167,704.5 832.833,704.5 834.5,704.5C 834.5,711.167 834.5,717.833 834.5,724.5C 835.5,724.5 836.5,724.5 837.5,724.5C 837.5,731.5 837.5,738.5 837.5,745.5C 838.833,745.5 840.167,745.5 841.5,745.5C 841.5,750.833 841.5,756.167 841.5,761.5C 843.833,761.5 846.167,761.5 848.5,761.5C 848.5,765.5 848.5,769.5 848.5,773.5C 848.5,778.167 848.5,782.833 848.5,787.5C 849.833,787.5 851.167,787.5 852.5,787.5C 852.5,794.5 852.5,801.5 852.5,808.5C 846.5,808.5 840.5,808.5 834.5,808.5C 831.375,807.521 828.042,807.187 824.5,807.5C 824.5,803.833 824.5,800.167 824.5,796.5C 822.167,796.5 819.833,796.5 817.5,796.5C 817.5,793.5 817.5,790.5 817.5,787.5C 813.833,787.5 810.167,787.5 806.5,787.5C 806.5,766.833 806.5,746.167 806.5,725.5C 806.5,704.5 806.5,683.5 806.5,662.5 Z"/></g>
<g><path style="opacity:1" fill="#ebbe42" d="M 806.5,562.5 C 806.5,563.167 806.5,563.833 806.5,564.5C 806.5,591.5 806.5,618.5 806.5,645.5C 806.5,651.167 806.5,656.833 806.5,662.5C 806.5,683.5 806.5,704.5 806.5,725.5C 805.504,739.99 805.171,754.657 805.5,769.5C 725.167,769.5 644.833,769.5 564.5,769.5C 564.5,758.833 564.5,748.167 564.5,737.5C 564.5,729.833 564.5,722.167 564.5,714.5C 644.833,714.5 725.167,714.5 805.5,714.5C 805.5,703.833 805.5,693.167 805.5,682.5C 805.5,668.167 805.5,653.833 805.5,639.5C 805.5,625.833 805.5,612.167 805.5,598.5C 805.172,586.322 805.505,574.322 806.5,562.5 Z"/></g>
<g><path style="opacity:0.999" fill="#f7df73" d="M 146.5,737.5 C 285.5,737.5 424.5,737.5 563.5,737.5C 563.5,750.833 563.5,764.167 563.5,777.5C 424.833,777.5 286.167,777.5 147.5,777.5C 147.795,775.265 147.461,773.265 146.5,771.5C 146.5,760.167 146.5,748.833 146.5,737.5 Z"/></g>
<g><path style="opacity:0.998" fill="#f7dd6d" d="M 146.5,771.5 C 147.461,773.265 147.795,775.265 147.5,777.5C 286.167,777.5 424.833,777.5 563.5,777.5C 563.5,791.167 563.5,804.833 563.5,818.5C 424.833,818.5 286.167,818.5 147.5,818.5C 147.802,821.059 147.468,823.393 146.5,825.5C 146.5,807.5 146.5,789.5 146.5,771.5 Z"/></g>
<g><path style="opacity:1" fill="#eaba3b" d="M 564.5,769.5 C 644.833,769.5 725.167,769.5 805.5,769.5C 805.5,783.167 805.5,796.833 805.5,810.5C 725.167,810.5 644.833,810.5 564.5,810.5C 564.5,796.833 564.5,783.167 564.5,769.5 Z"/></g>
<g><path style="opacity:1" fill="#ba6d05" d="M 806.5,787.5 C 810.167,787.5 813.833,787.5 817.5,787.5C 817.5,790.5 817.5,793.5 817.5,796.5C 819.833,796.5 822.167,796.5 824.5,796.5C 824.5,800.167 824.5,803.833 824.5,807.5C 828.042,807.187 831.375,807.521 834.5,808.5C 831.167,808.5 827.833,808.5 824.5,808.5C 824.5,815.5 824.5,822.5 824.5,829.5C 827.833,829.5 831.167,829.5 834.5,829.5C 834.5,836.5 834.5,843.5 834.5,850.5C 835.5,850.5 836.5,850.5 837.5,850.5C 837.5,857.5 837.5,864.5 837.5,871.5C 838.833,871.5 840.167,871.5 841.5,871.5C 841.5,878.5 841.5,885.5 841.5,892.5C 843.833,892.5 846.167,892.5 848.5,892.5C 848.5,895.167 848.5,897.833 848.5,900.5C 844.833,900.5 841.167,900.5 837.5,900.5C 837.5,896.5 837.5,892.5 837.5,888.5C 834.833,888.5 832.167,888.5 829.5,888.5C 829.5,884.833 829.5,881.167 829.5,877.5C 825.5,877.5 821.5,877.5 817.5,877.5C 817.5,873.5 817.5,869.5 817.5,865.5C 813.833,865.5 810.167,865.5 806.5,865.5C 806.5,839.5 806.5,813.5 806.5,787.5 Z"/></g>
<g><path style="opacity:0.997" fill="#bf6d05" d="M 834.5,808.5 C 834.5,812.167 834.5,815.833 834.5,819.5C 836.833,819.5 839.167,819.5 841.5,819.5C 841.5,823.167 841.5,826.833 841.5,830.5C 843.833,830.5 846.167,830.5 848.5,830.5C 848.5,834.5 848.5,838.5 848.5,842.5C 851.167,842.5 853.833,842.5 856.5,842.5C 856.5,846.167 856.5,849.833 856.5,853.5C 859.833,853.5 863.167,853.5 866.5,853.5C 866.5,857.5 866.5,861.5 866.5,865.5C 928.167,865.5 989.833,865.5 1051.5,865.5C 1051.18,861.298 1051.52,857.298 1052.5,853.5C 1052.5,884.5 1052.5,915.5 1052.5,946.5C 1051.52,942.702 1051.18,938.702 1051.5,934.5C 989.833,934.5 928.167,934.5 866.5,934.5C 866.5,930.833 866.5,927.167 866.5,923.5C 863.167,923.5 859.833,923.5 856.5,923.5C 856.5,919.5 856.5,915.5 856.5,911.5C 853.833,911.5 851.167,911.5 848.5,911.5C 848.5,907.833 848.5,904.167 848.5,900.5C 848.5,897.833 848.5,895.167 848.5,892.5C 846.167,892.5 843.833,892.5 841.5,892.5C 841.5,885.5 841.5,878.5 841.5,871.5C 840.167,871.5 838.833,871.5 837.5,871.5C 837.5,864.5 837.5,857.5 837.5,850.5C 836.5,850.5 835.5,850.5 834.5,850.5C 834.5,843.5 834.5,836.5 834.5,829.5C 831.167,829.5 827.833,829.5 824.5,829.5C 824.5,822.5 824.5,815.5 824.5,808.5C 827.833,808.5 831.167,808.5 834.5,808.5 Z"/></g>
<g><path style="opacity:0.997" fill="#c37306" d="M 848.5,773.5 C 851.167,773.5 853.833,773.5 856.5,773.5C 856.5,777.167 856.5,780.833 856.5,784.5C 859.833,784.5 863.167,784.5 866.5,784.5C 866.5,788.5 866.5,792.5 866.5,796.5C 928.5,796.5 990.5,796.5 1052.5,796.5C 1052.5,815.5 1052.5,834.5 1052.5,853.5C 1051.52,857.298 1051.18,861.298 1051.5,865.5C 989.833,865.5 928.167,865.5 866.5,865.5C 866.5,861.5 866.5,857.5 866.5,853.5C 863.167,853.5 859.833,853.5 856.5,853.5C 856.5,849.833 856.5,846.167 856.5,842.5C 853.833,842.5 851.167,842.5 848.5,842.5C 848.5,838.5 848.5,834.5 848.5,830.5C 846.167,830.5 843.833,830.5 841.5,830.5C 841.5,826.833 841.5,823.167 841.5,819.5C 839.167,819.5 836.833,819.5 834.5,819.5C 834.5,815.833 834.5,812.167 834.5,808.5C 840.5,808.5 846.5,808.5 852.5,808.5C 852.5,801.5 852.5,794.5 852.5,787.5C 851.167,787.5 849.833,787.5 848.5,787.5C 848.5,782.833 848.5,778.167 848.5,773.5 Z"/></g>
<g><path style="opacity:1" fill="#e9b735" d="M 564.5,810.5 C 644.833,810.5 725.167,810.5 805.5,810.5C 805.5,824.833 805.5,839.167 805.5,853.5C 725.167,853.5 644.833,853.5 564.5,853.5C 564.5,844.167 564.5,834.833 564.5,825.5C 564.5,820.5 564.5,815.5 564.5,810.5 Z"/></g>
<g><path style="opacity:0.999" fill="#f6db66" d="M 563.5,737.5 C 563.833,737.5 564.167,737.5 564.5,737.5C 564.5,748.167 564.5,758.833 564.5,769.5C 564.5,783.167 564.5,796.833 564.5,810.5C 564.5,815.5 564.5,820.5 564.5,825.5C 563.504,838.656 563.171,851.99 563.5,865.5C 424.833,865.5 286.167,865.5 147.5,865.5C 147.802,862.941 147.468,860.607 146.5,858.5C 146.5,847.5 146.5,836.5 146.5,825.5C 147.468,823.393 147.802,821.059 147.5,818.5C 286.167,818.5 424.833,818.5 563.5,818.5C 563.5,804.833 563.5,791.167 563.5,777.5C 563.5,764.167 563.5,750.833 563.5,737.5 Z"/></g>
<g><path style="opacity:0.998" fill="#b96503" d="M 806.5,865.5 C 810.167,865.5 813.833,865.5 817.5,865.5C 817.5,869.5 817.5,873.5 817.5,877.5C 821.5,877.5 825.5,877.5 829.5,877.5C 829.5,881.167 829.5,884.833 829.5,888.5C 832.167,888.5 834.833,888.5 837.5,888.5C 837.5,892.5 837.5,896.5 837.5,900.5C 841.167,900.5 844.833,900.5 848.5,900.5C 848.5,904.167 848.5,907.833 848.5,911.5C 849.183,913.176 850.517,913.843 852.5,913.5C 852.5,920.167 852.5,926.833 852.5,933.5C 853.833,933.5 855.167,933.5 856.5,933.5C 856.5,940.5 856.5,947.5 856.5,954.5C 858.167,954.5 859.833,954.5 861.5,954.5C 861.5,961.5 861.5,968.5 861.5,975.5C 866.5,975.5 871.5,975.5 876.5,975.5C 876.5,982.5 876.5,989.5 876.5,996.5C 934.833,996.5 993.167,996.5 1051.5,996.5C 1051.18,989.313 1051.51,982.313 1052.5,975.5C 1052.5,985.167 1052.5,994.833 1052.5,1004.5C 1051.52,1007.96 1051.19,1011.63 1051.5,1015.5C 989.833,1015.5 928.167,1015.5 866.5,1015.5C 866.5,1011.83 866.5,1008.17 866.5,1004.5C 863.167,1004.5 859.833,1004.5 856.5,1004.5C 856.5,1000.5 856.5,996.5 856.5,992.5C 852.833,992.5 849.167,992.5 845.5,992.5C 845.5,988.833 845.5,985.167 845.5,981.5C 842.833,981.5 840.167,981.5 837.5,981.5C 837.5,977.5 837.5,973.5 837.5,969.5C 833.167,969.5 828.833,969.5 824.5,969.5C 824.5,965.833 824.5,962.167 824.5,958.5C 818.5,958.5 812.5,958.5 806.5,958.5C 806.5,927.5 806.5,896.5 806.5,865.5 Z"/></g>
<g><path style="opacity:0.999" fill="#f5d960" d="M 564.5,825.5 C 564.5,834.833 564.5,844.167 564.5,853.5C 564.5,868.833 564.5,884.167 564.5,899.5C 564.5,901.833 564.5,904.167 564.5,906.5C 564.167,906.5 563.833,906.5 563.5,906.5C 424.833,906.5 286.167,906.5 147.5,906.5C 147.802,909.059 147.468,911.393 146.5,913.5C 146.5,895.167 146.5,876.833 146.5,858.5C 147.468,860.607 147.802,862.941 147.5,865.5C 286.167,865.5 424.833,865.5 563.5,865.5C 563.171,851.99 563.504,838.656 564.5,825.5 Z"/></g>
<g><path style="opacity:1" fill="#e7b32e" d="M 564.5,853.5 C 644.833,853.5 725.167,853.5 805.5,853.5C 805.5,868.833 805.5,884.167 805.5,899.5C 725.167,899.5 644.833,899.5 564.5,899.5C 564.5,884.167 564.5,868.833 564.5,853.5 Z"/></g>
<g><path style="opacity:1" fill="#e6b028" d="M 564.5,899.5 C 644.833,899.5 725.167,899.5 805.5,899.5C 805.5,911.5 805.5,923.5 805.5,935.5C 725.167,935.5 644.833,935.5 564.5,935.5C 564.5,925.833 564.5,916.167 564.5,906.5C 564.5,904.167 564.5,901.833 564.5,899.5 Z"/></g>
<g><path style="opacity:0.999" fill="#f6d85a" d="M 563.5,906.5 C 563.5,919.833 563.5,933.167 563.5,946.5C 424.5,946.5 285.5,946.5 146.5,946.5C 146.5,935.5 146.5,924.5 146.5,913.5C 147.468,911.393 147.802,909.059 147.5,906.5C 286.167,906.5 424.833,906.5 563.5,906.5 Z"/></g>
<g><path style="opacity:0.998" fill="#bc6703" d="M 848.5,911.5 C 851.167,911.5 853.833,911.5 856.5,911.5C 856.5,915.5 856.5,919.5 856.5,923.5C 859.833,923.5 863.167,923.5 866.5,923.5C 866.5,927.167 866.5,930.833 866.5,934.5C 928.167,934.5 989.833,934.5 1051.5,934.5C 1051.18,938.702 1051.52,942.702 1052.5,946.5C 1052.5,956.167 1052.5,965.833 1052.5,975.5C 1051.51,982.313 1051.18,989.313 1051.5,996.5C 993.167,996.5 934.833,996.5 876.5,996.5C 876.5,989.5 876.5,982.5 876.5,975.5C 871.5,975.5 866.5,975.5 861.5,975.5C 861.5,968.5 861.5,961.5 861.5,954.5C 859.833,954.5 858.167,954.5 856.5,954.5C 856.5,947.5 856.5,940.5 856.5,933.5C 855.167,933.5 853.833,933.5 852.5,933.5C 852.5,926.833 852.5,920.167 852.5,913.5C 850.517,913.843 849.183,913.176 848.5,911.5 Z"/></g>
<g><path style="opacity:1" fill="#e5ac22" d="M 564.5,935.5 C 644.833,935.5 725.167,935.5 805.5,935.5C 805.5,951.167 805.5,966.833 805.5,982.5C 725.167,982.5 644.833,982.5 564.5,982.5C 564.5,966.833 564.5,951.167 564.5,935.5 Z"/></g>
<g><path style="opacity:0.999" fill="#f5d654" d="M 146.5,946.5 C 285.5,946.5 424.5,946.5 563.5,946.5C 563.5,960.167 563.5,973.833 563.5,987.5C 424.5,987.5 285.5,987.5 146.5,987.5C 146.5,973.833 146.5,960.167 146.5,946.5 Z"/></g>
<g><path style="opacity:1" fill="#b36003" d="M 806.5,958.5 C 812.5,958.5 818.5,958.5 824.5,958.5C 824.5,962.167 824.5,965.833 824.5,969.5C 828.833,969.5 833.167,969.5 837.5,969.5C 837.5,973.5 837.5,977.5 837.5,981.5C 837.5,986.5 837.5,991.5 837.5,996.5C 838.833,996.5 840.167,996.5 841.5,996.5C 841.5,1003.5 841.5,1010.5 841.5,1017.5C 842.833,1017.5 844.167,1017.5 845.5,1017.5C 845.5,1024.5 845.5,1031.5 845.5,1038.5C 847.833,1038.5 850.167,1038.5 852.5,1038.5C 852.5,1045.5 852.5,1052.5 852.5,1059.5C 853.833,1059.5 855.167,1059.5 856.5,1059.5C 856.5,1064.17 856.5,1068.83 856.5,1073.5C 855.167,1073.5 853.833,1073.5 852.5,1073.5C 852.5,1069.83 852.5,1066.17 852.5,1062.5C 850.167,1062.5 847.833,1062.5 845.5,1062.5C 845.5,1058.5 845.5,1054.5 845.5,1050.5C 841.833,1050.5 838.167,1050.5 834.5,1050.5C 834.5,1046.83 834.5,1043.17 834.5,1039.5C 831.167,1039.5 827.833,1039.5 824.5,1039.5C 824.5,1035.5 824.5,1031.5 824.5,1027.5C 818.5,1027.5 812.5,1027.5 806.5,1027.5C 806.5,1004.5 806.5,981.5 806.5,958.5 Z"/></g>
<g><path style="opacity:0.996" fill="#b86002" d="M 837.5,981.5 C 840.167,981.5 842.833,981.5 845.5,981.5C 845.5,985.167 845.5,988.833 845.5,992.5C 849.167,992.5 852.833,992.5 856.5,992.5C 856.5,996.5 856.5,1000.5 856.5,1004.5C 859.833,1004.5 863.167,1004.5 866.5,1004.5C 866.5,1008.17 866.5,1011.83 866.5,1015.5C 928.167,1015.5 989.833,1015.5 1051.5,1015.5C 1051.19,1011.63 1051.52,1007.96 1052.5,1004.5C 1052.5,1035.17 1052.5,1065.83 1052.5,1096.5C 1051.52,1093.04 1051.19,1089.37 1051.5,1085.5C 989.833,1085.5 928.167,1085.5 866.5,1085.5C 866.5,1081.5 866.5,1077.5 866.5,1073.5C 863.167,1073.5 859.833,1073.5 856.5,1073.5C 856.5,1068.83 856.5,1064.17 856.5,1059.5C 855.167,1059.5 853.833,1059.5 852.5,1059.5C 852.5,1052.5 852.5,1045.5 852.5,1038.5C 850.167,1038.5 847.833,1038.5 845.5,1038.5C 845.5,1031.5 845.5,1024.5 845.5,1017.5C 844.167,1017.5 842.833,1017.5 841.5,1017.5C 841.5,1010.5 841.5,1003.5 841.5,996.5C 840.167,996.5 838.833,996.5 837.5,996.5C 837.5,991.5 837.5,986.5 837.5,981.5 Z"/></g>
<g><path style="opacity:0.999" fill="#f4d44e" d="M 563.5,906.5 C 563.833,906.5 564.167,906.5 564.5,906.5C 564.5,916.167 564.5,925.833 564.5,935.5C 564.5,951.167 564.5,966.833 564.5,982.5C 564.5,986.5 564.5,990.5 564.5,994.5C 563.504,1007.66 563.171,1020.99 563.5,1034.5C 424.5,1034.5 285.5,1034.5 146.5,1034.5C 146.5,1018.83 146.5,1003.17 146.5,987.5C 285.5,987.5 424.5,987.5 563.5,987.5C 563.5,973.833 563.5,960.167 563.5,946.5C 563.5,933.167 563.5,919.833 563.5,906.5 Z"/></g>
<g><path style="opacity:1" fill="#e3a81b" d="M 564.5,982.5 C 644.833,982.5 725.167,982.5 805.5,982.5C 805.5,998.167 805.5,1013.83 805.5,1029.5C 725.167,1029.5 644.833,1029.5 564.5,1029.5C 564.5,1017.83 564.5,1006.17 564.5,994.5C 564.5,990.5 564.5,986.5 564.5,982.5 Z"/></g>
<g><path style="opacity:0.999" fill="#b45a01" d="M 806.5,1027.5 C 812.5,1027.5 818.5,1027.5 824.5,1027.5C 824.5,1031.5 824.5,1035.5 824.5,1039.5C 827.833,1039.5 831.167,1039.5 834.5,1039.5C 834.5,1043.17 834.5,1046.83 834.5,1050.5C 838.167,1050.5 841.833,1050.5 845.5,1050.5C 845.5,1054.5 845.5,1058.5 845.5,1062.5C 847.833,1062.5 850.167,1062.5 852.5,1062.5C 852.5,1066.17 852.5,1069.83 852.5,1073.5C 853.833,1073.5 855.167,1073.5 856.5,1073.5C 859.833,1073.5 863.167,1073.5 866.5,1073.5C 866.5,1077.5 866.5,1081.5 866.5,1085.5C 928.167,1085.5 989.833,1085.5 1051.5,1085.5C 1051.19,1089.37 1051.52,1093.04 1052.5,1096.5C 1052.83,1116.67 1052.5,1136.67 1051.5,1156.5C 990.176,1154.5 928.509,1153.84 866.5,1154.5C 866.5,1150.83 866.5,1147.17 866.5,1143.5C 861.833,1143.5 857.167,1143.5 852.5,1143.5C 852.5,1139.5 852.5,1135.5 852.5,1131.5C 848.833,1131.5 845.167,1131.5 841.5,1131.5C 841.5,1127.83 841.5,1124.17 841.5,1120.5C 839.167,1120.5 836.833,1120.5 834.5,1120.5C 834.5,1116.5 834.5,1112.5 834.5,1108.5C 832.833,1108.5 831.167,1108.5 829.5,1108.5C 829.5,1106.17 829.5,1103.83 829.5,1101.5C 827.833,1101.5 826.167,1101.5 824.5,1101.5C 824.5,1094.5 824.5,1087.5 824.5,1080.5C 818.5,1080.5 812.5,1080.5 806.5,1080.5C 806.5,1062.83 806.5,1045.17 806.5,1027.5 Z"/></g>
<g><path style="opacity:1" fill="#e2a415" d="M 564.5,1029.5 C 644.833,1029.5 725.167,1029.5 805.5,1029.5C 805.5,1044.83 805.5,1060.17 805.5,1075.5C 725.167,1075.5 644.833,1075.5 564.5,1075.5C 564.5,1060.17 564.5,1044.83 564.5,1029.5 Z"/></g>
<g><path style="opacity:0.999" fill="#f4d347" d="M 146.5,1034.5 C 285.5,1034.5 424.5,1034.5 563.5,1034.5C 563.5,1048.17 563.5,1061.83 563.5,1075.5C 424.5,1075.5 285.5,1075.5 146.5,1075.5C 146.5,1061.83 146.5,1048.17 146.5,1034.5 Z"/></g>
<g><path style="opacity:0.999" fill="#f4d141" d="M 146.5,1075.5 C 285.5,1075.5 424.5,1075.5 563.5,1075.5C 563.5,1088.83 563.5,1102.17 563.5,1115.5C 424.833,1115.5 286.167,1115.5 147.5,1115.5C 147.802,1112.94 147.468,1110.61 146.5,1108.5C 146.5,1097.5 146.5,1086.5 146.5,1075.5 Z"/></g>
<g><path style="opacity:1" fill="#e1a00f" d="M 564.5,1075.5 C 644.833,1075.5 725.167,1075.5 805.5,1075.5C 805.5,1087.83 805.5,1100.17 805.5,1112.5C 725.167,1112.5 644.833,1112.5 564.5,1112.5C 564.5,1100.17 564.5,1087.83 564.5,1075.5 Z"/></g>
<g><path style="opacity:1" fill="#ac5400" d="M 806.5,1080.5 C 812.5,1080.5 818.5,1080.5 824.5,1080.5C 824.5,1087.5 824.5,1094.5 824.5,1101.5C 826.167,1101.5 827.833,1101.5 829.5,1101.5C 829.5,1103.83 829.5,1106.17 829.5,1108.5C 829.5,1113.17 829.5,1117.83 829.5,1122.5C 831.167,1122.5 832.833,1122.5 834.5,1122.5C 834.5,1129.5 834.5,1136.5 834.5,1143.5C 836.833,1143.5 839.167,1143.5 841.5,1143.5C 841.5,1150.17 841.5,1156.83 841.5,1163.5C 842.5,1163.5 843.5,1163.5 844.5,1163.5C 844.477,1171.77 841.477,1178.6 835.5,1184C 839.245,1183.96 839.912,1184.96 837.5,1187C 828.018,1192.79 817.685,1195.62 806.5,1195.5C 806.5,1157.17 806.5,1118.83 806.5,1080.5 Z"/></g>
<g><path style="opacity:0.998" fill="#f4cf3b" d="M 146.5,1108.5 C 147.468,1110.61 147.802,1112.94 147.5,1115.5C 286.167,1115.5 424.833,1115.5 563.5,1115.5C 563.5,1127.17 563.5,1138.83 563.5,1150.5C 424.43,1150.83 285.43,1150.5 146.5,1149.5C 146.5,1135.83 146.5,1122.17 146.5,1108.5 Z"/></g>
<g><path style="opacity:0.998" fill="#b25500" d="M 829.5,1108.5 C 831.167,1108.5 832.833,1108.5 834.5,1108.5C 834.5,1112.5 834.5,1116.5 834.5,1120.5C 836.833,1120.5 839.167,1120.5 841.5,1120.5C 841.5,1124.17 841.5,1127.83 841.5,1131.5C 845.167,1131.5 848.833,1131.5 852.5,1131.5C 852.5,1135.5 852.5,1139.5 852.5,1143.5C 857.167,1143.5 861.833,1143.5 866.5,1143.5C 866.5,1147.17 866.5,1150.83 866.5,1154.5C 928.509,1153.84 990.176,1154.5 1051.5,1156.5C 1047.9,1179.43 1034.9,1193.76 1012.5,1199.5C 943.833,1199.5 875.167,1199.5 806.5,1199.5C 806.5,1198.17 806.5,1196.83 806.5,1195.5C 817.685,1195.62 828.018,1192.79 837.5,1187C 839.912,1184.96 839.245,1183.96 835.5,1184C 841.477,1178.6 844.477,1171.77 844.5,1163.5C 843.5,1163.5 842.5,1163.5 841.5,1163.5C 841.5,1156.83 841.5,1150.17 841.5,1143.5C 839.167,1143.5 836.833,1143.5 834.5,1143.5C 834.5,1136.5 834.5,1129.5 834.5,1122.5C 832.833,1122.5 831.167,1122.5 829.5,1122.5C 829.5,1117.83 829.5,1113.17 829.5,1108.5 Z"/></g>
<g><path style="opacity:1" fill="#df9d09" d="M 564.5,1112.5 C 644.833,1112.5 725.167,1112.5 805.5,1112.5C 805.5,1126.17 805.5,1139.83 805.5,1153.5C 725.167,1153.5 644.833,1153.5 564.5,1153.5C 564.5,1139.83 564.5,1126.17 564.5,1112.5 Z"/></g>
<g><path style="opacity:1" fill="#de9904" d="M 806.5,725.5 C 806.5,746.167 806.5,766.833 806.5,787.5C 806.5,813.5 806.5,839.5 806.5,865.5C 806.5,896.5 806.5,927.5 806.5,958.5C 806.5,981.5 806.5,1004.5 806.5,1027.5C 806.5,1045.17 806.5,1062.83 806.5,1080.5C 806.5,1118.83 806.5,1157.17 806.5,1195.5C 806.5,1196.83 806.5,1198.17 806.5,1199.5C 725.833,1199.5 645.167,1199.5 564.5,1199.5C 564.5,1184.17 564.5,1168.83 564.5,1153.5C 644.833,1153.5 725.167,1153.5 805.5,1153.5C 805.5,1139.83 805.5,1126.17 805.5,1112.5C 805.5,1100.17 805.5,1087.83 805.5,1075.5C 805.5,1060.17 805.5,1044.83 805.5,1029.5C 805.5,1013.83 805.5,998.167 805.5,982.5C 805.5,966.833 805.5,951.167 805.5,935.5C 805.5,923.5 805.5,911.5 805.5,899.5C 805.5,884.167 805.5,868.833 805.5,853.5C 805.5,839.167 805.5,824.833 805.5,810.5C 805.5,796.833 805.5,783.167 805.5,769.5C 805.171,754.657 805.504,739.99 806.5,725.5 Z"/></g>
<g><path style="opacity:0.999" fill="#f2cd35" d="M 564.5,994.5 C 564.5,1006.17 564.5,1017.83 564.5,1029.5C 564.5,1044.83 564.5,1060.17 564.5,1075.5C 564.5,1087.83 564.5,1100.17 564.5,1112.5C 564.5,1126.17 564.5,1139.83 564.5,1153.5C 564.5,1168.83 564.5,1184.17 564.5,1199.5C 438.5,1199.5 312.5,1199.5 186.5,1199.5C 169.348,1195.16 157.181,1184.82 150,1168.5C 147.867,1162.34 146.701,1156 146.5,1149.5C 285.43,1150.5 424.43,1150.83 563.5,1150.5C 563.5,1138.83 563.5,1127.17 563.5,1115.5C 563.5,1102.17 563.5,1088.83 563.5,1075.5C 563.5,1061.83 563.5,1048.17 563.5,1034.5C 563.171,1020.99 563.504,1007.66 564.5,994.5 Z"/></g>
</svg>
