<?xml version="1.0" encoding="UTF-8"?>
<!DOCTYPE svg PUBLIC "-//W3C//DTD SVG 1.1//EN" "http://www.w3.org/Graphics/SVG/1.1/DTD/svg11.dtd">
<svg xmlns="http://www.w3.org/2000/svg" version="1.1" width="3000px" height="2000px" style="shape-rendering:geometricPrecision; text-rendering:geometricPrecision; image-rendering:optimizeQuality; fill-rule:evenodd; clip-rule:evenodd" xmlns:xlink="http://www.w3.org/1999/xlink">
<g><path style="opacity:1" fill="#01b3ee" d="M 346.5,428.5 C 346.5,439.833 346.5,451.167 346.5,462.5C 1104.17,462.5 1861.83,462.5 2619.5,462.5C 2613.5,469.167 2607.17,475.5 2600.5,481.5C 2592.76,487.739 2585.42,494.572 2578.5,502C 1834.5,502.5 1090.5,502.667 346.5,502.5C 346.5,511.167 346.5,519.833 346.5,528.5C 346.167,528.5 345.833,528.5 345.5,528.5C 345.168,494.996 345.502,461.662 346.5,428.5 Z"/></g>
<g><path style="opacity:1" fill="#00b6f0" d="M 346.5,428.5 C 1115.5,428.333 1884.5,428.5 2653.5,429C 2642.3,440.369 2630.97,451.535 2619.5,462.5C 1861.83,462.5 1104.17,462.5 346.5,462.5C 346.5,451.167 346.5,439.833 346.5,428.5 Z"/></g>
<g><path style="opacity:1" fill="#02b0ec" d="M 2600.5,481.5 C 2576.17,506.5 2551.5,531.167 2526.5,555.5C 1800,554.5 1073.33,554.167 346.5,554.5C 346.5,545.833 346.5,537.167 346.5,528.5C 346.5,519.833 346.5,511.167 346.5,502.5C 1090.5,502.667 1834.5,502.5 2578.5,502C 2585.42,494.572 2592.76,487.739 2600.5,481.5 Z"/></g>
<g><path style="opacity:1" fill="#03abe9" d="M 345.5,528.5 C 345.833,528.5 346.167,528.5 346.5,528.5C 346.5,537.167 346.5,545.833 346.5,554.5C 1073.33,554.167 1800,554.5 2526.5,555.5C 2502.5,580.167 2478.17,604.5 2453.5,628.5C 1751.33,627.5 1049,627.167 346.5,627.5C 346.5,629.5 346.5,631.5 346.5,633.5C 346.5,637.833 346.5,642.167 346.5,646.5C 346.167,646.5 345.833,646.5 345.5,646.5C 345.5,607.167 345.5,567.833 345.5,528.5 Z"/></g>
<g><path style="opacity:1" fill="#07a9e7" d="M 2453.5,628.5 C 2451.83,630.833 2449.83,632.833 2447.5,634.5C 1870.83,633.167 1294.17,633.167 717.5,634.5C 680.13,630.656 642.797,630.656 605.5,634.5C 519.335,633.501 433.002,633.167 346.5,633.5C 346.5,631.5 346.5,629.5 346.5,627.5C 1049,627.167 1751.33,627.5 2453.5,628.5 Z"/></g>
<g><path style="opacity:1" fill="#fefefe" d="M 717.5,634.5 C 785.832,642.557 851.165,661.057 913.5,690C 914.5,690.833 915.5,691.667 916.5,692.5C 915.487,694.527 914.487,696.527 913.5,698.5C 899.072,722.927 885.072,747.594 871.5,772.5C 868.331,776.833 865.664,781.5 863.5,786.5C 855.026,800.77 846.526,815.103 838,829.5C 793.506,806.252 746.34,791.752 696.5,786C 677.182,784.658 657.849,784.325 638.5,785C 619.224,786.425 601.557,792.425 585.5,803C 573.343,811.811 568.177,823.644 570,838.5C 577.324,853.657 588.49,864.99 603.5,872.5C 617.958,881.729 633.291,889.396 649.5,895.5C 670.067,904.022 691.067,911.356 712.5,917.5C 738.474,926.161 764.14,935.827 789.5,946.5C 818.447,958.629 844.78,974.796 868.5,995C 876.433,1002.43 883.766,1010.26 890.5,1018.5C 907.735,1040.65 918.735,1065.65 923.5,1093.5C 933.231,1068.64 942.564,1043.64 951.5,1018.5C 960.875,994.718 969.875,970.718 978.5,946.5C 982.402,937.011 986.069,927.344 989.5,917.5C 992.738,910.459 995.405,903.126 997.5,895.5C 1001.27,887.874 1004.27,879.874 1006.5,871.5C 1017.54,843.385 1028.21,815.052 1038.5,786.5C 1040.74,782.466 1042.4,778.132 1043.5,773.5C 1053.21,748.718 1062.54,723.718 1071.5,698.5C 1078.86,680.757 1085.86,662.757 1092.5,644.5C 1158.16,643.333 1223.83,643.167 1289.5,644C 1296.43,662.288 1303.43,680.455 1310.5,698.5C 1319.1,723.313 1328.1,747.98 1337.5,772.5C 1338.6,777.144 1340.27,781.478 1342.5,785.5C 1352.79,814.717 1363.46,843.717 1374.5,872.5C 1383.13,897.383 1392.13,922.05 1401.5,946.5C 1409.93,971.14 1418.93,995.473 1428.5,1019.5C 1437.26,1045.13 1446.6,1070.46 1456.5,1095.5C 1466.3,1123.58 1476.3,1151.58 1486.5,1179.5C 1486.46,1180.76 1486.96,1181.76 1488,1182.5C 1488.5,1091.17 1488.67,999.834 1488.5,908.5C 1488.5,820.167 1488.5,731.833 1488.5,643.5C 1564.17,643.5 1639.83,643.5 1715.5,643.5C 1770.55,642.238 1824.55,649.071 1877.5,664C 1904.2,671.855 1928.87,683.688 1951.5,699.5C 1956.48,703.47 1961.48,707.47 1966.5,711.5C 1986.07,729.064 2001.4,749.731 2012.5,773.5C 2014.32,778.325 2016.32,782.992 2018.5,787.5C 2027.82,814.76 2033.15,842.76 2034.5,871.5C 2034.59,886.512 2034.26,901.512 2033.5,916.5C 2031.76,926.78 2030.09,937.113 2028.5,947.5C 2023.06,973.035 2013.73,997.035 2000.5,1019.5C 1980.59,1051.08 1954.26,1075.75 1921.5,1093.5C 1877.27,1115.96 1830.27,1128.13 1780.5,1130C 1746.5,1130.5 1712.5,1130.67 1678.5,1130.5C 1678.5,1132.17 1678.5,1133.83 1678.5,1135.5C 1678.5,1150.83 1678.5,1166.17 1678.5,1181.5C 1678.5,1205.83 1678.5,1230.17 1678.5,1254.5C 1678.5,1264.5 1678.5,1274.5 1678.5,1284.5C 1678.5,1299.5 1678.5,1314.5 1678.5,1329.5C 1678.5,1336.17 1678.5,1342.83 1678.5,1349.5C 1566.17,1349.5 1453.83,1349.5 1341.5,1349.5C 1340.1,1342.65 1338.1,1335.98 1335.5,1329.5C 1331.03,1314.76 1326.36,1300.09 1321.5,1285.5C 1317.77,1273.15 1313.94,1260.82 1310,1248.5C 1309.59,1246.59 1308.43,1245.59 1306.5,1245.5C 1246.83,1263.36 1186.16,1267.53 1124.5,1258C 1106.12,1254.36 1087.95,1249.86 1070,1244.5C 1064.3,1257.42 1059.47,1270.75 1055.5,1284.5C 1050.1,1299.69 1045.1,1315.03 1040.5,1330.5C 1038.1,1336.7 1036.1,1343.03 1034.5,1349.5C 965.833,1349.5 897.167,1349.5 828.5,1349.5C 835.59,1329.06 842.757,1308.73 850,1288.5C 820.535,1314.16 787.035,1332.99 749.5,1345C 735.82,1349 722.153,1352.5 708.5,1355.5C 663.244,1361.31 617.91,1361.98 572.5,1357.5C 531.653,1351.66 491.653,1341.99 452.5,1328.5C 427.526,1318.18 403.192,1306.51 379.5,1293.5C 378.417,1292.64 378.251,1291.64 379,1290.5C 385.117,1278.6 390.95,1266.6 396.5,1254.5C 408.752,1231 420.752,1207.33 432.5,1183.5C 437.805,1173.56 443.138,1163.56 448.5,1153.5C 466.836,1164.5 485.836,1174.17 505.5,1182.5C 542.705,1199.25 581.871,1207.59 623,1207.5C 641.339,1207.35 659.506,1205.51 677.5,1202C 690.435,1198.54 701.435,1192.04 710.5,1182.5C 722.464,1169.27 726.464,1153.94 722.5,1136.5C 718.779,1127.25 712.779,1119.75 704.5,1114C 691.429,1105.3 677.429,1098.46 662.5,1093.5C 633.965,1083.7 605.298,1074.2 576.5,1065C 541.29,1052.73 507.623,1037.23 475.5,1018.5C 444.583,1000.22 419.583,975.882 400.5,945.5C 388.186,922.231 380.853,897.564 378.5,871.5C 376.131,842.549 379.131,814.216 387.5,786.5C 400.309,752.552 420.309,723.552 447.5,699.5C 493.826,663.022 546.492,641.355 605.5,634.5C 642.797,630.656 680.13,630.656 717.5,634.5 Z"/></g>
<g><path style="opacity:1" fill="#07a6e5" d="M 346.5,633.5 C 433.002,633.167 519.335,633.501 605.5,634.5C 546.492,641.355 493.826,663.022 447.5,699.5C 414.004,698.502 380.337,698.168 346.5,698.5C 346.5,681.167 346.5,663.833 346.5,646.5C 346.5,642.167 346.5,637.833 346.5,633.5 Z"/></g>
<g><path style="opacity:1" fill="#08a6e5" d="M 717.5,634.5 C 1294.17,633.167 1870.83,633.167 2447.5,634.5C 2430.5,652.167 2413.17,669.5 2395.5,686.5C 2390.76,689.731 2386.43,693.564 2382.5,698C 2238.67,698.167 2095,698.667 1951.5,699.5C 1928.87,683.688 1904.2,671.855 1877.5,664C 1824.55,649.071 1770.55,642.238 1715.5,643.5C 1639.67,642.501 1563.67,642.167 1487.5,642.5C 1487.5,661.167 1487.5,679.833 1487.5,698.5C 1428.5,698.5 1369.5,698.5 1310.5,698.5C 1303.43,680.455 1296.43,662.288 1289.5,644C 1223.83,643.167 1158.16,643.333 1092.5,644.5C 1085.86,662.757 1078.86,680.757 1071.5,698.5C 1018.83,698.5 966.167,698.5 913.5,698.5C 914.487,696.527 915.487,694.527 916.5,692.5C 915.5,691.667 914.5,690.833 913.5,690C 851.165,661.057 785.832,642.557 717.5,634.5 Z"/></g>
<g><path style="opacity:1" fill="#07a3e4" d="M 2395.5,686.5 C 2387.83,694.833 2379.83,702.833 2371.5,710.5C 2236.33,710.167 2101.33,710.5 1966.5,711.5C 1961.48,707.47 1956.48,703.47 1951.5,699.5C 2095,698.667 2238.67,698.167 2382.5,698C 2386.43,693.564 2390.76,689.731 2395.5,686.5 Z"/></g>
<g><path style="opacity:1" fill="#09a0e2" d="M 913.5,698.5 C 966.167,698.5 1018.83,698.5 1071.5,698.5C 1062.54,723.718 1053.21,748.718 1043.5,773.5C 986.336,772.501 929.002,772.168 871.5,772.5C 885.072,747.594 899.072,722.927 913.5,698.5 Z"/></g>
<g><path style="opacity:1" fill="#09a0e2" d="M 345.5,646.5 C 345.833,646.5 346.167,646.5 346.5,646.5C 346.5,663.833 346.5,681.167 346.5,698.5C 380.337,698.168 414.004,698.502 447.5,699.5C 420.309,723.552 400.309,752.552 387.5,786.5C 373.677,785.504 359.677,785.171 345.5,785.5C 345.5,739.167 345.5,692.833 345.5,646.5 Z"/></g>
<g><path style="opacity:1" fill="#08a0e2" d="M 1310.5,698.5 C 1369.5,698.5 1428.5,698.5 1487.5,698.5C 1487.5,723.167 1487.5,747.833 1487.5,772.5C 1437.5,772.5 1387.5,772.5 1337.5,772.5C 1328.1,747.98 1319.1,723.313 1310.5,698.5 Z"/></g>
<g><path style="opacity:1" fill="#08a0e2" d="M 2371.5,710.5 C 2350.83,731.833 2329.83,752.833 2308.5,773.5C 2209.83,772.167 2111.17,772.167 2012.5,773.5C 2001.4,749.731 1986.07,729.064 1966.5,711.5C 2101.33,710.5 2236.33,710.167 2371.5,710.5 Z"/></g>
<g><path style="opacity:1" fill="#78cbef" d="M 1715.5,643.5 C 1639.83,643.5 1564.17,643.5 1488.5,643.5C 1488.5,731.833 1488.5,820.167 1488.5,908.5C 1488.17,908.5 1487.83,908.5 1487.5,908.5C 1487.5,896.167 1487.5,883.833 1487.5,871.5C 1487.5,842.833 1487.5,814.167 1487.5,785.5C 1487.5,781.167 1487.5,776.833 1487.5,772.5C 1487.5,747.833 1487.5,723.167 1487.5,698.5C 1487.5,679.833 1487.5,661.167 1487.5,642.5C 1563.67,642.167 1639.67,642.501 1715.5,643.5 Z"/></g>
<g><path style="opacity:1" fill="#0a9de0" d="M 871.5,772.5 C 929.002,772.168 986.336,772.501 1043.5,773.5C 1042.4,778.132 1040.74,782.466 1038.5,786.5C 980.264,785.169 921.931,785.169 863.5,786.5C 865.664,781.5 868.331,776.833 871.5,772.5 Z"/></g>
<g><path style="opacity:1" fill="#099de0" d="M 1337.5,772.5 C 1387.5,772.5 1437.5,772.5 1487.5,772.5C 1487.5,776.833 1487.5,781.167 1487.5,785.5C 1439.17,785.5 1390.83,785.5 1342.5,785.5C 1340.27,781.478 1338.6,777.144 1337.5,772.5 Z"/></g>
<g><path style="opacity:1" fill="#099de0" d="M 2308.5,773.5 C 2304.5,778.167 2300.17,782.5 2295.5,786.5C 2249.5,785.833 2203.33,785.5 2157,785.5C 2110.5,785.5 2064.33,786.167 2018.5,787.5C 2016.32,782.992 2014.32,778.325 2012.5,773.5C 2111.17,772.167 2209.83,772.167 2308.5,773.5 Z"/></g>
<g><path style="opacity:0.993" fill="#0f99dd" d="M 345.5,785.5 C 359.677,785.171 373.677,785.504 387.5,786.5C 379.131,814.216 376.131,842.549 378.5,871.5C 367.833,871.5 357.167,871.5 346.5,871.5C 346.5,888.167 346.5,904.833 346.5,921.5C 346.167,921.5 345.833,921.5 345.5,921.5C 345.5,876.167 345.5,830.833 345.5,785.5 Z"/></g>
<g><path style="opacity:1" fill="#0b98dd" d="M 863.5,786.5 C 921.931,785.169 980.264,785.169 1038.5,786.5C 1028.21,815.052 1017.54,843.385 1006.5,871.5C 871.999,871.167 737.666,871.5 603.5,872.5C 588.49,864.99 577.324,853.657 570,838.5C 568.177,823.644 573.343,811.811 585.5,803C 601.557,792.425 619.224,786.425 638.5,785C 657.849,784.325 677.182,784.658 696.5,786C 746.34,791.752 793.506,806.252 838,829.5C 846.526,815.103 855.026,800.77 863.5,786.5 Z"/></g>
<g><path style="opacity:1" fill="#0a99dd" d="M 1342.5,785.5 C 1390.83,785.5 1439.17,785.5 1487.5,785.5C 1487.5,814.167 1487.5,842.833 1487.5,871.5C 1449.66,871.168 1412,871.502 1374.5,872.5C 1363.46,843.717 1352.79,814.717 1342.5,785.5 Z"/></g>
<g><path style="opacity:1" fill="#0a99dd" d="M 2295.5,786.5 C 2267.5,815.167 2239.17,843.5 2210.5,871.5C 2151.83,871.5 2093.17,871.5 2034.5,871.5C 2033.15,842.76 2027.82,814.76 2018.5,787.5C 2064.33,786.167 2110.5,785.5 2157,785.5C 2203.33,785.5 2249.5,785.833 2295.5,786.5 Z"/></g>
<g><path style="opacity:1" fill="#0d98dd" d="M 1848.5,880.5 C 1847.52,877.713 1847.19,874.713 1847.5,871.5C 1791.17,871.5 1734.83,871.5 1678.5,871.5C 1678.5,844.833 1678.5,818.167 1678.5,791.5C 1704.52,791.134 1730.52,791.634 1756.5,793C 1774.84,794.584 1792.17,799.584 1808.5,808C 1835.66,824.377 1849,848.544 1848.5,880.5 Z"/></g>
<g><path style="opacity:1" fill="#0c94db" d="M 1006.5,871.5 C 1004.27,879.874 1001.27,887.874 997.5,895.5C 881.5,894.167 765.5,894.167 649.5,895.5C 633.291,889.396 617.958,881.729 603.5,872.5C 737.666,871.5 871.999,871.167 1006.5,871.5 Z"/></g>
<g><path style="opacity:1" fill="#0b93da" d="M 2034.5,871.5 C 2093.17,871.5 2151.83,871.5 2210.5,871.5C 2196.17,886.5 2181.5,901.167 2166.5,915.5C 2122.21,916.489 2077.88,916.823 2033.5,916.5C 2034.26,901.512 2034.59,886.512 2034.5,871.5 Z"/></g>
<g><path style="opacity:1" fill="#0d92da" d="M 649.5,895.5 C 765.5,894.167 881.5,894.167 997.5,895.5C 995.405,903.126 992.738,910.459 989.5,917.5C 897.167,916.167 804.833,916.167 712.5,917.5C 691.067,911.356 670.067,904.022 649.5,895.5 Z"/></g>
<g><path style="opacity:1" fill="#0c92d9" d="M 1487.5,871.5 C 1487.5,883.833 1487.5,896.167 1487.5,908.5C 1487.5,920.833 1487.5,933.167 1487.5,945.5C 1458.66,945.169 1430,945.502 1401.5,946.5C 1392.13,922.05 1383.13,897.383 1374.5,872.5C 1412,871.502 1449.66,871.168 1487.5,871.5 Z"/></g>
<g><path style="opacity:1" fill="#0c93da" d="M 1678.5,871.5 C 1734.83,871.5 1791.17,871.5 1847.5,871.5C 1847.19,874.713 1847.52,877.713 1848.5,880.5C 1848.43,889.235 1847.6,897.902 1846,906.5C 1845.3,910.109 1844.13,913.442 1842.5,916.5C 1787.83,916.5 1733.17,916.5 1678.5,916.5C 1678.5,901.5 1678.5,886.5 1678.5,871.5 Z"/></g>
<g><path style="opacity:1" fill="#1092d9" d="M 378.5,871.5 C 380.853,897.564 388.186,922.231 400.5,945.5C 382.5,945.5 364.5,945.5 346.5,945.5C 346.5,937.5 346.5,929.5 346.5,921.5C 346.5,904.833 346.5,888.167 346.5,871.5C 357.167,871.5 367.833,871.5 378.5,871.5 Z"/></g>
<g><path style="opacity:1" fill="#1592d9" d="M 1215.5,945.5 C 1198.12,945.194 1180.79,945.528 1163.5,946.5C 1172.04,919.56 1180.37,892.56 1188.5,865.5C 1189.5,865.5 1190.5,865.5 1191.5,865.5C 1199.5,892.167 1207.5,918.833 1215.5,945.5 Z"/></g>
<g><path style="opacity:1" fill="#0e91d8" d="M 989.5,917.5 C 986.069,927.344 982.402,937.011 978.5,946.5C 915.5,945.167 852.5,945.167 789.5,946.5C 764.14,935.827 738.474,926.161 712.5,917.5C 804.833,916.167 897.167,916.167 989.5,917.5 Z"/></g>
<g><path style="opacity:1" fill="#0d90d8" d="M 1678.5,916.5 C 1733.17,916.5 1787.83,916.5 1842.5,916.5C 1839.19,928.459 1832.86,938.459 1823.5,946.5C 1775.34,945.501 1727,945.168 1678.5,945.5C 1678.5,935.833 1678.5,926.167 1678.5,916.5 Z"/></g>
<g><path style="opacity:1" fill="#0e90d8" d="M 2166.5,915.5 C 2160.83,921.833 2154.83,927.833 2148.5,933.5C 2143.76,936.731 2139.43,940.564 2135.5,945C 2100.5,945.333 2065.5,945.667 2030.5,946C 2029.96,946.717 2029.29,947.217 2028.5,947.5C 2030.09,937.113 2031.76,926.78 2033.5,916.5C 2077.88,916.823 2122.21,916.489 2166.5,915.5 Z"/></g>
<g><path style="opacity:0.998" fill="#0f8cd6" d="M 345.5,921.5 C 345.833,921.5 346.167,921.5 346.5,921.5C 346.5,929.5 346.5,937.5 346.5,945.5C 364.5,945.5 382.5,945.5 400.5,945.5C 419.583,975.882 444.583,1000.22 475.5,1018.5C 432.239,1019.49 388.906,1019.83 345.5,1019.5C 345.5,986.833 345.5,954.167 345.5,921.5 Z"/></g>
<g><path style="opacity:0.994" fill="#0f8dd6" d="M 2148.5,933.5 C 2119.83,962.833 2090.83,991.833 2061.5,1020.5C 2041.34,1019.5 2021.01,1019.17 2000.5,1019.5C 2013.73,997.035 2023.06,973.035 2028.5,947.5C 2029.29,947.217 2029.96,946.717 2030.5,946C 2065.5,945.667 2100.5,945.333 2135.5,945C 2139.43,940.564 2143.76,936.731 2148.5,933.5 Z"/></g>
<g><path style="opacity:1" fill="#0f8dd6" d="M 789.5,946.5 C 852.5,945.167 915.5,945.167 978.5,946.5C 969.875,970.718 960.875,994.718 951.5,1018.5C 931.167,1017.17 910.833,1017.17 890.5,1018.5C 883.766,1010.26 876.433,1002.43 868.5,995C 844.78,974.796 818.447,958.629 789.5,946.5 Z"/></g>
<g><path style="opacity:1" fill="#128cd6" d="M 1215.5,945.5 C 1223.54,969.95 1231.2,994.617 1238.5,1019.5C 1205.63,1019.52 1172.96,1019.52 1140.5,1019.5C 1147.97,995.09 1155.64,970.756 1163.5,946.5C 1180.79,945.528 1198.12,945.194 1215.5,945.5 Z"/></g>
<g><path style="opacity:1" fill="#0e8cd6" d="M 1487.5,945.5 C 1487.5,970.167 1487.5,994.833 1487.5,1019.5C 1467.83,1019.5 1448.17,1019.5 1428.5,1019.5C 1418.93,995.473 1409.93,971.14 1401.5,946.5C 1430,945.502 1458.66,945.169 1487.5,945.5 Z"/></g>
<g><path style="opacity:1" fill="#0f8ed7" d="M 1678.5,945.5 C 1727,945.168 1775.34,945.501 1823.5,946.5C 1808.49,959.997 1790.83,968.164 1770.5,971C 1762.25,972.711 1753.92,973.711 1745.5,974C 1723.17,974.5 1700.84,974.667 1678.5,974.5C 1678.5,964.833 1678.5,955.167 1678.5,945.5 Z"/></g>
<g><path style="opacity:0.999" fill="#1186d2" d="M 475.5,1018.5 C 507.623,1037.23 541.29,1052.73 576.5,1065C 605.298,1074.2 633.965,1083.7 662.5,1093.5C 557.335,1094.5 452.001,1094.83 346.5,1094.5C 346.818,1089.97 346.485,1085.63 345.5,1081.5C 345.5,1060.83 345.5,1040.17 345.5,1019.5C 388.906,1019.83 432.239,1019.49 475.5,1018.5 Z"/></g>
<g><path style="opacity:1" fill="#1588d3" d="M 951.5,1018.5 C 942.564,1043.64 933.231,1068.64 923.5,1093.5C 918.735,1065.65 907.735,1040.65 890.5,1018.5C 910.833,1017.17 931.167,1017.17 951.5,1018.5 Z"/></g>
<g><path style="opacity:1" fill="#1486d2" d="M 1140.5,1019.5 C 1172.96,1019.52 1205.63,1019.52 1238.5,1019.5C 1246.33,1043.66 1254,1068 1261.5,1092.5C 1225.42,1105.63 1188.42,1108.8 1150.5,1102C 1139.28,1099.99 1128.44,1096.82 1118,1092.5C 1124.71,1067.99 1132.21,1043.66 1140.5,1019.5 Z"/></g>
<g><path style="opacity:1" fill="#1187d2" d="M 1428.5,1019.5 C 1448.17,1019.5 1467.83,1019.5 1487.5,1019.5C 1487.5,1044.5 1487.5,1069.5 1487.5,1094.5C 1476.99,1094.17 1466.65,1094.51 1456.5,1095.5C 1446.6,1070.46 1437.26,1045.13 1428.5,1019.5 Z"/></g>
<g><path style="opacity:1" fill="#1286d2" d="M 2000.5,1019.5 C 2021.01,1019.17 2041.34,1019.5 2061.5,1020.5C 2037.17,1045.5 2012.5,1070.17 1987.5,1094.5C 1965.45,1094.81 1943.45,1094.48 1921.5,1093.5C 1954.26,1075.75 1980.59,1051.08 2000.5,1019.5 Z"/></g>
<g><path style="opacity:1" fill="#82c0e7" d="M 1487.5,908.5 C 1487.83,908.5 1488.17,908.5 1488.5,908.5C 1488.67,999.834 1488.5,1091.17 1488,1182.5C 1486.96,1181.76 1486.46,1180.76 1486.5,1179.5C 1487.5,1151.34 1487.83,1123 1487.5,1094.5C 1487.5,1069.5 1487.5,1044.5 1487.5,1019.5C 1487.5,994.833 1487.5,970.167 1487.5,945.5C 1487.5,933.167 1487.5,920.833 1487.5,908.5 Z"/></g>
<g><path style="opacity:1" fill="#1281cf" d="M 345.5,1081.5 C 346.485,1085.63 346.818,1089.97 346.5,1094.5C 452.001,1094.83 557.335,1094.5 662.5,1093.5C 677.429,1098.46 691.429,1105.3 704.5,1114C 712.779,1119.75 718.779,1127.25 722.5,1136.5C 597.237,1135.5 471.903,1135.17 346.5,1135.5C 346.821,1130.31 346.487,1125.31 345.5,1120.5C 345.5,1107.5 345.5,1094.5 345.5,1081.5 Z"/></g>
<g><path style="opacity:1" fill="#1a83d0" d="M 1921.5,1093.5 C 1943.45,1094.48 1965.45,1094.81 1987.5,1094.5C 1974.17,1108.5 1960.5,1122.17 1946.5,1135.5C 1857.17,1135.5 1767.83,1135.5 1678.5,1135.5C 1678.5,1133.83 1678.5,1132.17 1678.5,1130.5C 1712.5,1130.67 1746.5,1130.5 1780.5,1130C 1830.27,1128.13 1877.27,1115.96 1921.5,1093.5 Z"/></g>
<g><path style="opacity:1" fill="#1481cf" d="M 1487.5,1094.5 C 1487.83,1123 1487.5,1151.34 1486.5,1179.5C 1476.3,1151.58 1466.3,1123.58 1456.5,1095.5C 1466.65,1094.51 1476.99,1094.17 1487.5,1094.5 Z"/></g>
<g><path style="opacity:1" fill="#137ecd" d="M 345.5,1120.5 C 346.487,1125.31 346.821,1130.31 346.5,1135.5C 471.903,1135.17 597.237,1135.5 722.5,1136.5C 726.464,1153.94 722.464,1169.27 710.5,1182.5C 642.167,1181.17 573.833,1181.17 505.5,1182.5C 485.836,1174.17 466.836,1164.5 448.5,1153.5C 443.138,1163.56 437.805,1173.56 432.5,1183.5C 403.779,1181.82 374.779,1180.82 345.5,1180.5C 345.5,1160.5 345.5,1140.5 345.5,1120.5 Z"/></g>
<g><path style="opacity:1" fill="#137ecd" d="M 1678.5,1135.5 C 1767.83,1135.5 1857.17,1135.5 1946.5,1135.5C 1927.5,1155.17 1908.17,1174.5 1888.5,1193.5C 1888.06,1193.57 1887.73,1193.4 1887.5,1193C 1891.17,1189.33 1894.83,1185.67 1898.5,1182C 1825.17,1181.5 1751.83,1181.33 1678.5,1181.5C 1678.5,1166.17 1678.5,1150.83 1678.5,1135.5 Z"/></g>
<g><path style="opacity:0.998" fill="#1579ca" d="M 345.5,1180.5 C 374.779,1180.82 403.779,1181.82 432.5,1183.5C 420.752,1207.33 408.752,1231 396.5,1254.5C 379.833,1254.5 363.167,1254.5 346.5,1254.5C 346.817,1250.3 346.483,1246.3 345.5,1242.5C 345.5,1221.83 345.5,1201.17 345.5,1180.5 Z"/></g>
<g><path style="opacity:1" fill="#197ccc" d="M 710.5,1182.5 C 701.435,1192.04 690.435,1198.54 677.5,1202C 659.506,1205.51 641.339,1207.35 623,1207.5C 581.871,1207.59 542.705,1199.25 505.5,1182.5C 573.833,1181.17 642.167,1181.17 710.5,1182.5 Z"/></g>
<g><path style="opacity:0.998" fill="#1479ca" d="M 1678.5,1181.5 C 1751.83,1181.33 1825.17,1181.5 1898.5,1182C 1894.83,1185.67 1891.17,1189.33 1887.5,1193C 1887.73,1193.4 1888.06,1193.57 1888.5,1193.5C 1868.17,1214.5 1847.5,1235.17 1826.5,1255.5C 1777.34,1254.5 1728,1254.17 1678.5,1254.5C 1678.5,1230.17 1678.5,1205.83 1678.5,1181.5 Z"/></g>
<g><path style="opacity:1" fill="#1a76c8" d="M 1321.5,1285.5 C 1232.9,1284.5 1144.24,1284.17 1055.5,1284.5C 1059.47,1270.75 1064.3,1257.42 1070,1244.5C 1087.95,1249.86 1106.12,1254.36 1124.5,1258C 1186.16,1267.53 1246.83,1263.36 1306.5,1245.5C 1308.43,1245.59 1309.59,1246.59 1310,1248.5C 1313.94,1260.82 1317.77,1273.15 1321.5,1285.5 Z"/></g>
<g><path style="opacity:1" fill="#1675c8" d="M 1678.5,1254.5 C 1728,1254.17 1777.34,1254.5 1826.5,1255.5C 1816.83,1265.83 1806.83,1275.83 1796.5,1285.5C 1757.34,1284.5 1718,1284.17 1678.5,1284.5C 1678.5,1274.5 1678.5,1264.5 1678.5,1254.5 Z"/></g>
<g><path style="opacity:1" fill="#1873c6" d="M 345.5,1242.5 C 346.483,1246.3 346.817,1250.3 346.5,1254.5C 363.167,1254.5 379.833,1254.5 396.5,1254.5C 390.95,1266.6 385.117,1278.6 379,1290.5C 378.251,1291.64 378.417,1292.64 379.5,1293.5C 403.192,1306.51 427.526,1318.18 452.5,1328.5C 451.122,1329.23 449.622,1329.9 448,1330.5C 414.182,1329.52 380.016,1329.19 345.5,1329.5C 345.5,1300.5 345.5,1271.5 345.5,1242.5 Z"/></g>
<g><path style="opacity:1" fill="#1772c6" d="M 1055.5,1284.5 C 1144.24,1284.17 1232.9,1284.5 1321.5,1285.5C 1326.36,1300.09 1331.03,1314.76 1335.5,1329.5C 1237.13,1329.17 1138.79,1329.5 1040.5,1330.5C 1045.1,1315.03 1050.1,1299.69 1055.5,1284.5 Z"/></g>
<g><path style="opacity:1" fill="#1772c6" d="M 1678.5,1284.5 C 1718,1284.17 1757.34,1284.5 1796.5,1285.5C 1782.17,1300.5 1767.5,1315.17 1752.5,1329.5C 1727.83,1329.5 1703.17,1329.5 1678.5,1329.5C 1678.5,1314.5 1678.5,1299.5 1678.5,1284.5 Z"/></g>
<g><path style="opacity:1" fill="#186fc4" d="M 1040.5,1330.5 C 1138.79,1329.5 1237.13,1329.17 1335.5,1329.5C 1338.1,1335.98 1340.1,1342.65 1341.5,1349.5C 1453.83,1349.5 1566.17,1349.5 1678.5,1349.5C 1678.5,1342.83 1678.5,1336.17 1678.5,1329.5C 1703.17,1329.5 1727.83,1329.5 1752.5,1329.5C 1743.17,1339.5 1733.5,1349.17 1723.5,1358.5C 1384.17,1358.67 1044.83,1358.5 705.5,1358C 707.623,1356.81 709.957,1356.14 712.5,1356C 711.207,1355.51 709.873,1355.34 708.5,1355.5C 722.153,1352.5 735.82,1349 749.5,1345C 787.035,1332.99 820.535,1314.16 850,1288.5C 842.757,1308.73 835.59,1329.06 828.5,1349.5C 897.167,1349.5 965.833,1349.5 1034.5,1349.5C 1036.1,1343.03 1038.1,1336.7 1040.5,1330.5 Z"/></g>
<g><path style="opacity:0.997" fill="#196fc4" d="M 452.5,1328.5 C 491.653,1341.99 531.653,1351.66 572.5,1357.5C 497.185,1358.48 421.852,1358.82 346.5,1358.5C 346.5,1379.5 346.5,1400.5 346.5,1421.5C 346.167,1421.5 345.833,1421.5 345.5,1421.5C 345.5,1390.83 345.5,1360.17 345.5,1329.5C 380.016,1329.19 414.182,1329.52 448,1330.5C 449.622,1329.9 451.122,1329.23 452.5,1328.5 Z"/></g>
<g><path style="opacity:1" fill="#196cc2" d="M 708.5,1355.5 C 709.873,1355.34 711.207,1355.51 712.5,1356C 709.957,1356.14 707.623,1356.81 705.5,1358C 1044.83,1358.5 1384.17,1358.67 1723.5,1358.5C 1709.83,1372.83 1695.83,1386.83 1681.5,1400.5C 1673.76,1406.74 1666.42,1413.57 1659.5,1421C 1221.83,1421.5 784.167,1421.67 346.5,1421.5C 346.5,1400.5 346.5,1379.5 346.5,1358.5C 421.852,1358.82 497.185,1358.48 572.5,1357.5C 617.91,1361.98 663.244,1361.31 708.5,1355.5 Z"/></g>
<g><path style="opacity:1" fill="#1b66bf" d="M 345.5,1421.5 C 345.833,1421.5 346.167,1421.5 346.5,1421.5C 346.5,1423.17 346.5,1424.83 346.5,1426.5C 782.667,1426.17 1218.67,1426.5 1654.5,1427.5C 1620.17,1462.5 1585.5,1497.17 1550.5,1531.5C 1149.33,1530.5 748,1530.17 346.5,1530.5C 346.5,1543.83 346.5,1557.17 346.5,1570.5C 345.501,1521 345.168,1471.34 345.5,1421.5 Z"/></g>
<g><path style="opacity:1" fill="#196ac1" d="M 1681.5,1400.5 C 1672.83,1409.83 1663.83,1418.83 1654.5,1427.5C 1218.67,1426.5 782.667,1426.17 346.5,1426.5C 346.5,1424.83 346.5,1423.17 346.5,1421.5C 784.167,1421.67 1221.83,1421.5 1659.5,1421C 1666.42,1413.57 1673.76,1406.74 1681.5,1400.5 Z"/></g>
<g><path style="opacity:0.927" fill="#176fc4" d="M 1842.5,1421.5 C 1892.8,1421.3 1921.13,1446.13 1927.5,1496C 1924.44,1534.08 1904.28,1558.92 1867,1570.5C 1838.34,1574.91 1813.67,1566.24 1793,1544.5C 1770.96,1514.52 1769.96,1483.52 1790,1451.5C 1803.73,1434.89 1821.23,1424.89 1842.5,1421.5 Z M 1844.5,1434.5 C 1872.85,1432.81 1893.52,1445.31 1906.5,1472C 1914.71,1495.98 1910.88,1518.14 1895,1538.5C 1869.31,1561.59 1842.14,1563.43 1813.5,1544C 1794.65,1526.79 1787.82,1505.63 1793,1480.5C 1801.19,1454.45 1818.35,1439.12 1844.5,1434.5 Z M 1836.5,1465.5 C 1845.17,1465.33 1853.84,1465.5 1862.5,1466C 1872.21,1470.52 1874.04,1477.36 1868,1486.5C 1866.58,1487.46 1865.08,1488.29 1863.5,1489C 1854.57,1490.38 1845.57,1490.88 1836.5,1490.5C 1836.5,1482.17 1836.5,1473.83 1836.5,1465.5 Z"/></g>
<g><path style="opacity:0.922" fill="#176fc4" d="M 1822.5,1452.5 C 1834.84,1452.33 1847.17,1452.5 1859.5,1453C 1880.28,1454.12 1888.78,1464.95 1885,1485.5C 1881.43,1494.88 1874.6,1500.55 1864.5,1502.5C 1872.9,1514.68 1880.74,1527.02 1888,1539.5C 1882.92,1538.69 1877.75,1538.19 1872.5,1538C 1865.08,1525.83 1857.42,1513.83 1849.5,1502C 1845.18,1501.5 1840.85,1501.33 1836.5,1501.5C 1836.5,1513.83 1836.5,1526.17 1836.5,1538.5C 1831.83,1538.5 1827.17,1538.5 1822.5,1538.5C 1822.5,1509.83 1822.5,1481.17 1822.5,1452.5 Z M 1836.5,1465.5 C 1836.5,1473.83 1836.5,1482.17 1836.5,1490.5C 1845.57,1490.88 1854.57,1490.38 1863.5,1489C 1865.08,1488.29 1866.58,1487.46 1868,1486.5C 1874.04,1477.36 1872.21,1470.52 1862.5,1466C 1853.84,1465.5 1845.17,1465.33 1836.5,1465.5 Z"/></g>
<g><path style="opacity:1" fill="#1c62bc" d="M 1550.5,1531.5 C 1538.04,1544.47 1525.37,1557.3 1512.5,1570C 1123.83,1570.5 735.167,1570.67 346.5,1570.5C 346.5,1557.17 346.5,1543.83 346.5,1530.5C 748,1530.17 1149.33,1530.5 1550.5,1531.5 Z"/></g>
</svg>
